<svg xmlns="http://www.w3.org/2000/svg" version="1.1" xmlns:xlink="http://www.w3.org/1999/xlink" xmlns:svgjs="http://svgjs.dev/svgjs" viewBox="0 0 800 800"><defs><linearGradient gradientTransform="rotate(270)" x1="50%" y1="0%" x2="50%" y2="100%" id="sssquiggly-grad"><stop stop-color="hsla(0, 0%, 100%, 1.00)" stop-opacity="1" offset="0%"></stop><stop stop-color="hsla(0, 0%, 100%, 1.00)" stop-opacity="1" offset="100%"></stop></linearGradient></defs><g stroke-width="2" stroke="url(#sssquiggly-grad)" fill="none" stroke-linecap="round" transform="matrix(1,0,0,1,0,59.09933853149414)"><path d="M10,10C21.805555555555557,16.25,40.97222222222223,46.041666666666664,66.66666666666667,40C92.36111111111111,33.958333333333336,105.55555555555557,-16.291666666666668,133.33333333333334,-19C161.11111111111111,-21.708333333333332,172.22222222222223,28.041666666666668,200,27C227.77777777777777,25.958333333333332,238.8888888888889,-24.416666666666668,266.6666666666667,-24C294.44444444444446,-23.583333333333332,305.5555555555556,25.666666666666668,333.33333333333337,29C361.11111111111114,32.333333333333336,372.22222222222223,-6.958333333333333,400,-8C427.77777777777777,-9.041666666666666,438.8888888888889,25.25,466.6666666666667,24C494.44444444444446,22.75,505.5555555555556,-16.083333333333332,533.3333333333334,-14C561.1111111111111,-11.916666666666666,572.2222222222222,32.75,600,34C627.7777777777778,35.25,638.8888888888889,-8,666.6666666666667,-8C694.4444444444446,-8,707.6388888888889,30.25,733.3333333333334,34C759.0277777777778,37.75,778.1944444444445,15,790,10"></path><path d="M10,10C21.805555555555557,16.25,40.97222222222223,46.041666666666664,66.66666666666667,40C92.36111111111111,33.958333333333336,105.55555555555557,-16.291666666666668,133.33333333333334,-19C161.11111111111111,-21.708333333333332,172.22222222222223,28.041666666666668,200,27C227.77777777777777,25.958333333333332,238.8888888888889,-24.416666666666668,266.6666666666667,-24C294.44444444444446,-23.583333333333332,305.5555555555556,25.666666666666668,333.33333333333337,29C361.11111111111114,32.333333333333336,372.22222222222223,-6.958333333333333,400,-8C427.77777777777777,-9.041666666666666,438.8888888888889,25.25,466.6666666666667,24C494.44444444444446,22.75,505.5555555555556,-16.083333333333332,533.3333333333334,-14C561.1111111111111,-11.916666666666666,572.2222222222222,32.75,600,34C627.7777777777778,35.25,638.8888888888889,-8,666.6666666666667,-8C694.4444444444446,-8,707.6388888888889,30.25,733.3333333333334,34C759.0277777777778,37.75,778.1944444444445,15,790,10" transform="matrix(1,0,0,1,0,665)"></path><path d="M10,10C21.805555555555557,16.25,40.97222222222223,46.041666666666664,66.66666666666667,40C92.36111111111111,33.958333333333336,105.55555555555557,-16.291666666666668,133.33333333333334,-19C161.11111111111111,-21.708333333333332,172.22222222222223,28.041666666666668,200,27C227.77777777777777,25.958333333333332,238.8888888888889,-24.416666666666668,266.6666666666667,-24C294.44444444444446,-23.583333333333332,305.5555555555556,25.666666666666668,333.33333333333337,29C361.11111111111114,32.333333333333336,372.22222222222223,-6.958333333333333,400,-8C427.77777777777777,-9.041666666666666,438.8888888888889,25.25,466.6666666666667,24C494.44444444444446,22.75,505.5555555555556,-16.083333333333332,533.3333333333334,-14C561.1111111111111,-11.916666666666666,572.2222222222222,32.75,600,34C627.7777777777778,35.25,638.8888888888889,-8,666.6666666666667,-8C694.4444444444446,-8,707.6388888888889,30.25,733.3333333333334,34C759.0277777777778,37.75,778.1944444444445,15,790,10" transform="matrix(1,0,0,1,0,630)"></path><path d="M10,10C21.805555555555557,16.25,40.97222222222223,46.041666666666664,66.66666666666667,40C92.36111111111111,33.958333333333336,105.55555555555557,-16.291666666666668,133.33333333333334,-19C161.11111111111111,-21.708333333333332,172.22222222222223,28.041666666666668,200,27C227.77777777777777,25.958333333333332,238.8888888888889,-24.416666666666668,266.6666666666667,-24C294.44444444444446,-23.583333333333332,305.5555555555556,25.666666666666668,333.33333333333337,29C361.11111111111114,32.333333333333336,372.22222222222223,-6.958333333333333,400,-8C427.77777777777777,-9.041666666666666,438.8888888888889,25.25,466.6666666666667,24C494.44444444444446,22.75,505.5555555555556,-16.083333333333332,533.3333333333334,-14C561.1111111111111,-11.916666666666666,572.2222222222222,32.75,600,34C627.7777777777778,35.25,638.8888888888889,-8,666.6666666666667,-8C694.4444444444446,-8,707.6388888888889,30.25,733.3333333333334,34C759.0277777777778,37.75,778.1944444444445,15,790,10" transform="matrix(1,0,0,1,0,595)"></path><path d="M10,10C21.805555555555557,16.25,40.97222222222223,46.041666666666664,66.66666666666667,40C92.36111111111111,33.958333333333336,105.55555555555557,-16.291666666666668,133.33333333333334,-19C161.11111111111111,-21.708333333333332,172.22222222222223,28.041666666666668,200,27C227.77777777777777,25.958333333333332,238.8888888888889,-24.416666666666668,266.6666666666667,-24C294.44444444444446,-23.583333333333332,305.5555555555556,25.666666666666668,333.33333333333337,29C361.11111111111114,32.333333333333336,372.22222222222223,-6.958333333333333,400,-8C427.77777777777777,-9.041666666666666,438.8888888888889,25.25,466.6666666666667,24C494.44444444444446,22.75,505.5555555555556,-16.083333333333332,533.3333333333334,-14C561.1111111111111,-11.916666666666666,572.2222222222222,32.75,600,34C627.7777777777778,35.25,638.8888888888889,-8,666.6666666666667,-8C694.4444444444446,-8,707.6388888888889,30.25,733.3333333333334,34C759.0277777777778,37.75,778.1944444444445,15,790,10" transform="matrix(1,0,0,1,0,560)"></path><path d="M10,10C21.805555555555557,16.25,40.97222222222223,46.041666666666664,66.66666666666667,40C92.36111111111111,33.958333333333336,105.55555555555557,-16.291666666666668,133.33333333333334,-19C161.11111111111111,-21.708333333333332,172.22222222222223,28.041666666666668,200,27C227.77777777777777,25.958333333333332,238.8888888888889,-24.416666666666668,266.6666666666667,-24C294.44444444444446,-23.583333333333332,305.5555555555556,25.666666666666668,333.33333333333337,29C361.11111111111114,32.333333333333336,372.22222222222223,-6.958333333333333,400,-8C427.77777777777777,-9.041666666666666,438.8888888888889,25.25,466.6666666666667,24C494.44444444444446,22.75,505.5555555555556,-16.083333333333332,533.3333333333334,-14C561.1111111111111,-11.916666666666666,572.2222222222222,32.75,600,34C627.7777777777778,35.25,638.8888888888889,-8,666.6666666666667,-8C694.4444444444446,-8,707.6388888888889,30.25,733.3333333333334,34C759.0277777777778,37.75,778.1944444444445,15,790,10" transform="matrix(1,0,0,1,0,525)"></path><path d="M10,10C21.805555555555557,16.25,40.97222222222223,46.041666666666664,66.66666666666667,40C92.36111111111111,33.958333333333336,105.55555555555557,-16.291666666666668,133.33333333333334,-19C161.11111111111111,-21.708333333333332,172.22222222222223,28.041666666666668,200,27C227.77777777777777,25.958333333333332,238.8888888888889,-24.416666666666668,266.6666666666667,-24C294.44444444444446,-23.583333333333332,305.5555555555556,25.666666666666668,333.33333333333337,29C361.11111111111114,32.333333333333336,372.22222222222223,-6.958333333333333,400,-8C427.77777777777777,-9.041666666666666,438.8888888888889,25.25,466.6666666666667,24C494.44444444444446,22.75,505.5555555555556,-16.083333333333332,533.3333333333334,-14C561.1111111111111,-11.916666666666666,572.2222222222222,32.75,600,34C627.7777777777778,35.25,638.8888888888889,-8,666.6666666666667,-8C694.4444444444446,-8,707.6388888888889,30.25,733.3333333333334,34C759.0277777777778,37.75,778.1944444444445,15,790,10" transform="matrix(1,0,0,1,0,490)"></path><path d="M10,10C21.805555555555557,16.25,40.97222222222223,46.041666666666664,66.66666666666667,40C92.36111111111111,33.958333333333336,105.55555555555557,-16.291666666666668,133.33333333333334,-19C161.11111111111111,-21.708333333333332,172.22222222222223,28.041666666666668,200,27C227.77777777777777,25.958333333333332,238.8888888888889,-24.416666666666668,266.6666666666667,-24C294.44444444444446,-23.583333333333332,305.5555555555556,25.666666666666668,333.33333333333337,29C361.11111111111114,32.333333333333336,372.22222222222223,-6.958333333333333,400,-8C427.77777777777777,-9.041666666666666,438.8888888888889,25.25,466.6666666666667,24C494.44444444444446,22.75,505.5555555555556,-16.083333333333332,533.3333333333334,-14C561.1111111111111,-11.916666666666666,572.2222222222222,32.75,600,34C627.7777777777778,35.25,638.8888888888889,-8,666.6666666666667,-8C694.4444444444446,-8,707.6388888888889,30.25,733.3333333333334,34C759.0277777777778,37.75,778.1944444444445,15,790,10" transform="matrix(1,0,0,1,0,455)"></path><path d="M10,10C21.805555555555557,16.25,40.97222222222223,46.041666666666664,66.66666666666667,40C92.36111111111111,33.958333333333336,105.55555555555557,-16.291666666666668,133.33333333333334,-19C161.11111111111111,-21.708333333333332,172.22222222222223,28.041666666666668,200,27C227.77777777777777,25.958333333333332,238.8888888888889,-24.416666666666668,266.6666666666667,-24C294.44444444444446,-23.583333333333332,305.5555555555556,25.666666666666668,333.33333333333337,29C361.11111111111114,32.333333333333336,372.22222222222223,-6.958333333333333,400,-8C427.77777777777777,-9.041666666666666,438.8888888888889,25.25,466.6666666666667,24C494.44444444444446,22.75,505.5555555555556,-16.083333333333332,533.3333333333334,-14C561.1111111111111,-11.916666666666666,572.2222222222222,32.75,600,34C627.7777777777778,35.25,638.8888888888889,-8,666.6666666666667,-8C694.4444444444446,-8,707.6388888888889,30.25,733.3333333333334,34C759.0277777777778,37.75,778.1944444444445,15,790,10" transform="matrix(1,0,0,1,0,420)"></path><path d="M10,10C21.805555555555557,16.25,40.97222222222223,46.041666666666664,66.66666666666667,40C92.36111111111111,33.958333333333336,105.55555555555557,-16.291666666666668,133.33333333333334,-19C161.11111111111111,-21.708333333333332,172.22222222222223,28.041666666666668,200,27C227.77777777777777,25.958333333333332,238.8888888888889,-24.416666666666668,266.6666666666667,-24C294.44444444444446,-23.583333333333332,305.5555555555556,25.666666666666668,333.33333333333337,29C361.11111111111114,32.333333333333336,372.22222222222223,-6.958333333333333,400,-8C427.77777777777777,-9.041666666666666,438.8888888888889,25.25,466.6666666666667,24C494.44444444444446,22.75,505.5555555555556,-16.083333333333332,533.3333333333334,-14C561.1111111111111,-11.916666666666666,572.2222222222222,32.75,600,34C627.7777777777778,35.25,638.8888888888889,-8,666.6666666666667,-8C694.4444444444446,-8,707.6388888888889,30.25,733.3333333333334,34C759.0277777777778,37.75,778.1944444444445,15,790,10" transform="matrix(1,0,0,1,0,385)"></path><path d="M10,10C21.805555555555557,16.25,40.97222222222223,46.041666666666664,66.66666666666667,40C92.36111111111111,33.958333333333336,105.55555555555557,-16.291666666666668,133.33333333333334,-19C161.11111111111111,-21.708333333333332,172.22222222222223,28.041666666666668,200,27C227.77777777777777,25.958333333333332,238.8888888888889,-24.416666666666668,266.6666666666667,-24C294.44444444444446,-23.583333333333332,305.5555555555556,25.666666666666668,333.33333333333337,29C361.11111111111114,32.333333333333336,372.22222222222223,-6.958333333333333,400,-8C427.77777777777777,-9.041666666666666,438.8888888888889,25.25,466.6666666666667,24C494.44444444444446,22.75,505.5555555555556,-16.083333333333332,533.3333333333334,-14C561.1111111111111,-11.916666666666666,572.2222222222222,32.75,600,34C627.7777777777778,35.25,638.8888888888889,-8,666.6666666666667,-8C694.4444444444446,-8,707.6388888888889,30.25,733.3333333333334,34C759.0277777777778,37.75,778.1944444444445,15,790,10" transform="matrix(1,0,0,1,0,350)"></path><path d="M10,10C21.805555555555557,16.25,40.97222222222223,46.041666666666664,66.66666666666667,40C92.36111111111111,33.958333333333336,105.55555555555557,-16.291666666666668,133.33333333333334,-19C161.11111111111111,-21.708333333333332,172.22222222222223,28.041666666666668,200,27C227.77777777777777,25.958333333333332,238.8888888888889,-24.416666666666668,266.6666666666667,-24C294.44444444444446,-23.583333333333332,305.5555555555556,25.666666666666668,333.33333333333337,29C361.11111111111114,32.333333333333336,372.22222222222223,-6.958333333333333,400,-8C427.77777777777777,-9.041666666666666,438.8888888888889,25.25,466.6666666666667,24C494.44444444444446,22.75,505.5555555555556,-16.083333333333332,533.3333333333334,-14C561.1111111111111,-11.916666666666666,572.2222222222222,32.75,600,34C627.7777777777778,35.25,638.8888888888889,-8,666.6666666666667,-8C694.4444444444446,-8,707.6388888888889,30.25,733.3333333333334,34C759.0277777777778,37.75,778.1944444444445,15,790,10" transform="matrix(1,0,0,1,0,315)"></path><path d="M10,10C21.805555555555557,16.25,40.97222222222223,46.041666666666664,66.66666666666667,40C92.36111111111111,33.958333333333336,105.55555555555557,-16.291666666666668,133.33333333333334,-19C161.11111111111111,-21.708333333333332,172.22222222222223,28.041666666666668,200,27C227.77777777777777,25.958333333333332,238.8888888888889,-24.416666666666668,266.6666666666667,-24C294.44444444444446,-23.583333333333332,305.5555555555556,25.666666666666668,333.33333333333337,29C361.11111111111114,32.333333333333336,372.22222222222223,-6.958333333333333,400,-8C427.77777777777777,-9.041666666666666,438.8888888888889,25.25,466.6666666666667,24C494.44444444444446,22.75,505.5555555555556,-16.083333333333332,533.3333333333334,-14C561.1111111111111,-11.916666666666666,572.2222222222222,32.75,600,34C627.7777777777778,35.25,638.8888888888889,-8,666.6666666666667,-8C694.4444444444446,-8,707.6388888888889,30.25,733.3333333333334,34C759.0277777777778,37.75,778.1944444444445,15,790,10" transform="matrix(1,0,0,1,0,280)"></path><path d="M10,10C21.805555555555557,16.25,40.97222222222223,46.041666666666664,66.66666666666667,40C92.36111111111111,33.958333333333336,105.55555555555557,-16.291666666666668,133.33333333333334,-19C161.11111111111111,-21.708333333333332,172.22222222222223,28.041666666666668,200,27C227.77777777777777,25.958333333333332,238.8888888888889,-24.416666666666668,266.6666666666667,-24C294.44444444444446,-23.583333333333332,305.5555555555556,25.666666666666668,333.33333333333337,29C361.11111111111114,32.333333333333336,372.22222222222223,-6.958333333333333,400,-8C427.77777777777777,-9.041666666666666,438.8888888888889,25.25,466.6666666666667,24C494.44444444444446,22.75,505.5555555555556,-16.083333333333332,533.3333333333334,-14C561.1111111111111,-11.916666666666666,572.2222222222222,32.75,600,34C627.7777777777778,35.25,638.8888888888889,-8,666.6666666666667,-8C694.4444444444446,-8,707.6388888888889,30.25,733.3333333333334,34C759.0277777777778,37.75,778.1944444444445,15,790,10" transform="matrix(1,0,0,1,0,245)"></path><path d="M10,10C21.805555555555557,16.25,40.97222222222223,46.041666666666664,66.66666666666667,40C92.36111111111111,33.958333333333336,105.55555555555557,-16.291666666666668,133.33333333333334,-19C161.11111111111111,-21.708333333333332,172.22222222222223,28.041666666666668,200,27C227.77777777777777,25.958333333333332,238.8888888888889,-24.416666666666668,266.6666666666667,-24C294.44444444444446,-23.583333333333332,305.5555555555556,25.666666666666668,333.33333333333337,29C361.11111111111114,32.333333333333336,372.22222222222223,-6.958333333333333,400,-8C427.77777777777777,-9.041666666666666,438.8888888888889,25.25,466.6666666666667,24C494.44444444444446,22.75,505.5555555555556,-16.083333333333332,533.3333333333334,-14C561.1111111111111,-11.916666666666666,572.2222222222222,32.75,600,34C627.7777777777778,35.25,638.8888888888889,-8,666.6666666666667,-8C694.4444444444446,-8,707.6388888888889,30.25,733.3333333333334,34C759.0277777777778,37.75,778.1944444444445,15,790,10" transform="matrix(1,0,0,1,0,210)"></path><path d="M10,10C21.805555555555557,16.25,40.97222222222223,46.041666666666664,66.66666666666667,40C92.36111111111111,33.958333333333336,105.55555555555557,-16.291666666666668,133.33333333333334,-19C161.11111111111111,-21.708333333333332,172.22222222222223,28.041666666666668,200,27C227.77777777777777,25.958333333333332,238.8888888888889,-24.416666666666668,266.6666666666667,-24C294.44444444444446,-23.583333333333332,305.5555555555556,25.666666666666668,333.33333333333337,29C361.11111111111114,32.333333333333336,372.22222222222223,-6.958333333333333,400,-8C427.77777777777777,-9.041666666666666,438.8888888888889,25.25,466.6666666666667,24C494.44444444444446,22.75,505.5555555555556,-16.083333333333332,533.3333333333334,-14C561.1111111111111,-11.916666666666666,572.2222222222222,32.75,600,34C627.7777777777778,35.25,638.8888888888889,-8,666.6666666666667,-8C694.4444444444446,-8,707.6388888888889,30.25,733.3333333333334,34C759.0277777777778,37.75,778.1944444444445,15,790,10" transform="matrix(1,0,0,1,0,175)"></path><path d="M10,10C21.805555555555557,16.25,40.97222222222223,46.041666666666664,66.66666666666667,40C92.36111111111111,33.958333333333336,105.55555555555557,-16.291666666666668,133.33333333333334,-19C161.11111111111111,-21.708333333333332,172.22222222222223,28.041666666666668,200,27C227.77777777777777,25.958333333333332,238.8888888888889,-24.416666666666668,266.6666666666667,-24C294.44444444444446,-23.583333333333332,305.5555555555556,25.666666666666668,333.33333333333337,29C361.11111111111114,32.333333333333336,372.22222222222223,-6.958333333333333,400,-8C427.77777777777777,-9.041666666666666,438.8888888888889,25.25,466.6666666666667,24C494.44444444444446,22.75,505.5555555555556,-16.083333333333332,533.3333333333334,-14C561.1111111111111,-11.916666666666666,572.2222222222222,32.75,600,34C627.7777777777778,35.25,638.8888888888889,-8,666.6666666666667,-8C694.4444444444446,-8,707.6388888888889,30.25,733.3333333333334,34C759.0277777777778,37.75,778.1944444444445,15,790,10" transform="matrix(1,0,0,1,0,140)"></path><path d="M10,10C21.805555555555557,16.25,40.97222222222223,46.041666666666664,66.66666666666667,40C92.36111111111111,33.958333333333336,105.55555555555557,-16.291666666666668,133.33333333333334,-19C161.11111111111111,-21.708333333333332,172.22222222222223,28.041666666666668,200,27C227.77777777777777,25.958333333333332,238.8888888888889,-24.416666666666668,266.6666666666667,-24C294.44444444444446,-23.583333333333332,305.5555555555556,25.666666666666668,333.33333333333337,29C361.11111111111114,32.333333333333336,372.22222222222223,-6.958333333333333,400,-8C427.77777777777777,-9.041666666666666,438.8888888888889,25.25,466.6666666666667,24C494.44444444444446,22.75,505.5555555555556,-16.083333333333332,533.3333333333334,-14C561.1111111111111,-11.916666666666666,572.2222222222222,32.75,600,34C627.7777777777778,35.25,638.8888888888889,-8,666.6666666666667,-8C694.4444444444446,-8,707.6388888888889,30.25,733.3333333333334,34C759.0277777777778,37.75,778.1944444444445,15,790,10" transform="matrix(1,0,0,1,0,105)"></path><path d="M10,10C21.805555555555557,16.25,40.97222222222223,46.041666666666664,66.66666666666667,40C92.36111111111111,33.958333333333336,105.55555555555557,-16.291666666666668,133.33333333333334,-19C161.11111111111111,-21.708333333333332,172.22222222222223,28.041666666666668,200,27C227.77777777777777,25.958333333333332,238.8888888888889,-24.416666666666668,266.6666666666667,-24C294.44444444444446,-23.583333333333332,305.5555555555556,25.666666666666668,333.33333333333337,29C361.11111111111114,32.333333333333336,372.22222222222223,-6.958333333333333,400,-8C427.77777777777777,-9.041666666666666,438.8888888888889,25.25,466.6666666666667,24C494.44444444444446,22.75,505.5555555555556,-16.083333333333332,533.3333333333334,-14C561.1111111111111,-11.916666666666666,572.2222222222222,32.75,600,34C627.7777777777778,35.25,638.8888888888889,-8,666.6666666666667,-8C694.4444444444446,-8,707.6388888888889,30.25,733.3333333333334,34C759.0277777777778,37.75,778.1944444444445,15,790,10" transform="matrix(1,0,0,1,0,70)"></path><path d="M10,10C21.805555555555557,16.25,40.97222222222223,46.041666666666664,66.66666666666667,40C92.36111111111111,33.958333333333336,105.55555555555557,-16.291666666666668,133.33333333333334,-19C161.11111111111111,-21.708333333333332,172.22222222222223,28.041666666666668,200,27C227.77777777777777,25.958333333333332,238.8888888888889,-24.416666666666668,266.6666666666667,-24C294.44444444444446,-23.583333333333332,305.5555555555556,25.666666666666668,333.33333333333337,29C361.11111111111114,32.333333333333336,372.22222222222223,-6.958333333333333,400,-8C427.77777777777777,-9.041666666666666,438.8888888888889,25.25,466.6666666666667,24C494.44444444444446,22.75,505.5555555555556,-16.083333333333332,533.3333333333334,-14C561.1111111111111,-11.916666666666666,572.2222222222222,32.75,600,34C627.7777777777778,35.25,638.8888888888889,-8,666.6666666666667,-8C694.4444444444446,-8,707.6388888888889,30.25,733.3333333333334,34C759.0277777777778,37.75,778.1944444444445,15,790,10" transform="matrix(1,0,0,1,0,35)"></path></g></svg>