<svg xmlns="http://www.w3.org/2000/svg" version="1.1" xmlns:xlink="http://www.w3.org/1999/xlink" xmlns:svgjs="http://svgjs.dev/svgjs" viewBox="0 0 800 800"><g stroke-width="1.5" stroke="hsla(0, 0%, 100%, 1.00)" fill="none" stroke-linecap="round" transform="matrix(1,0,0,1,-5,4.969654083251953)"><path d="M10,10C24.583333333333332,11.041666666666666,48.75,22.083333333333336,80,15C111.25,7.916666666666666,126.66666666666666,-27.541666666666668,160,-24C193.33333333333334,-20.458333333333332,206.66666666666666,32.208333333333336,240,32C273.3333333333333,31.791666666666668,286.6666666666667,-22.708333333333332,320,-25C353.3333333333333,-27.291666666666668,366.6666666666667,18.916666666666668,400,21C433.3333333333333,23.083333333333332,446.6666666666667,-16.875,480,-15C513.3333333333334,-13.125,526.6666666666666,28.75,560,30C593.3333333333334,31.25,606.6666666666666,-14.208333333333334,640,-9C673.3333333333334,-3.791666666666666,686.6666666666666,52.083333333333336,720,55C753.3333333333334,57.916666666666664,783.3333333333334,15.416666666666668,800,5"></path><path d="M10,10C24.583333333333332,11.041666666666666,48.75,22.083333333333336,80,15C111.25,7.916666666666666,126.66666666666666,-27.541666666666668,160,-24C193.33333333333334,-20.458333333333332,206.66666666666666,32.208333333333336,240,32C273.3333333333333,31.791666666666668,286.6666666666667,-22.708333333333332,320,-25C353.3333333333333,-27.291666666666668,366.6666666666667,18.916666666666668,400,21C433.3333333333333,23.083333333333332,446.6666666666667,-16.875,480,-15C513.3333333333334,-13.125,526.6666666666666,28.75,560,30C593.3333333333334,31.25,606.6666666666666,-14.208333333333334,640,-9C673.3333333333334,-3.791666666666666,686.6666666666666,52.083333333333336,720,55C753.3333333333334,57.916666666666664,783.3333333333334,15.416666666666668,800,5" transform="matrix(1,0,0,1,0,760)"></path><path d="M10,10C24.583333333333332,11.041666666666666,48.75,22.083333333333336,80,15C111.25,7.916666666666666,126.66666666666666,-27.541666666666668,160,-24C193.33333333333334,-20.458333333333332,206.66666666666666,32.208333333333336,240,32C273.3333333333333,31.791666666666668,286.6666666666667,-22.708333333333332,320,-25C353.3333333333333,-27.291666666666668,366.6666666666667,18.916666666666668,400,21C433.3333333333333,23.083333333333332,446.6666666666667,-16.875,480,-15C513.3333333333334,-13.125,526.6666666666666,28.75,560,30C593.3333333333334,31.25,606.6666666666666,-14.208333333333334,640,-9C673.3333333333334,-3.791666666666666,686.6666666666666,52.083333333333336,720,55C753.3333333333334,57.916666666666664,783.3333333333334,15.416666666666668,800,5" transform="matrix(1,0,0,1,0,750)"></path><path d="M10,10C24.583333333333332,11.041666666666666,48.75,22.083333333333336,80,15C111.25,7.916666666666666,126.66666666666666,-27.541666666666668,160,-24C193.33333333333334,-20.458333333333332,206.66666666666666,32.208333333333336,240,32C273.3333333333333,31.791666666666668,286.6666666666667,-22.708333333333332,320,-25C353.3333333333333,-27.291666666666668,366.6666666666667,18.916666666666668,400,21C433.3333333333333,23.083333333333332,446.6666666666667,-16.875,480,-15C513.3333333333334,-13.125,526.6666666666666,28.75,560,30C593.3333333333334,31.25,606.6666666666666,-14.208333333333334,640,-9C673.3333333333334,-3.791666666666666,686.6666666666666,52.083333333333336,720,55C753.3333333333334,57.916666666666664,783.3333333333334,15.416666666666668,800,5" transform="matrix(1,0,0,1,0,740)"></path><path d="M10,10C24.583333333333332,11.041666666666666,48.75,22.083333333333336,80,15C111.25,7.916666666666666,126.66666666666666,-27.541666666666668,160,-24C193.33333333333334,-20.458333333333332,206.66666666666666,32.208333333333336,240,32C273.3333333333333,31.791666666666668,286.6666666666667,-22.708333333333332,320,-25C353.3333333333333,-27.291666666666668,366.6666666666667,18.916666666666668,400,21C433.3333333333333,23.083333333333332,446.6666666666667,-16.875,480,-15C513.3333333333334,-13.125,526.6666666666666,28.75,560,30C593.3333333333334,31.25,606.6666666666666,-14.208333333333334,640,-9C673.3333333333334,-3.791666666666666,686.6666666666666,52.083333333333336,720,55C753.3333333333334,57.916666666666664,783.3333333333334,15.416666666666668,800,5" transform="matrix(1,0,0,1,0,730)"></path><path d="M10,10C24.583333333333332,11.041666666666666,48.75,22.083333333333336,80,15C111.25,7.916666666666666,126.66666666666666,-27.541666666666668,160,-24C193.33333333333334,-20.458333333333332,206.66666666666666,32.208333333333336,240,32C273.3333333333333,31.791666666666668,286.6666666666667,-22.708333333333332,320,-25C353.3333333333333,-27.291666666666668,366.6666666666667,18.916666666666668,400,21C433.3333333333333,23.083333333333332,446.6666666666667,-16.875,480,-15C513.3333333333334,-13.125,526.6666666666666,28.75,560,30C593.3333333333334,31.25,606.6666666666666,-14.208333333333334,640,-9C673.3333333333334,-3.791666666666666,686.6666666666666,52.083333333333336,720,55C753.3333333333334,57.916666666666664,783.3333333333334,15.416666666666668,800,5" transform="matrix(1,0,0,1,0,720)"></path><path d="M10,10C24.583333333333332,11.041666666666666,48.75,22.083333333333336,80,15C111.25,7.916666666666666,126.66666666666666,-27.541666666666668,160,-24C193.33333333333334,-20.458333333333332,206.66666666666666,32.208333333333336,240,32C273.3333333333333,31.791666666666668,286.6666666666667,-22.708333333333332,320,-25C353.3333333333333,-27.291666666666668,366.6666666666667,18.916666666666668,400,21C433.3333333333333,23.083333333333332,446.6666666666667,-16.875,480,-15C513.3333333333334,-13.125,526.6666666666666,28.75,560,30C593.3333333333334,31.25,606.6666666666666,-14.208333333333334,640,-9C673.3333333333334,-3.791666666666666,686.6666666666666,52.083333333333336,720,55C753.3333333333334,57.916666666666664,783.3333333333334,15.416666666666668,800,5" transform="matrix(1,0,0,1,0,710)"></path><path d="M10,10C24.583333333333332,11.041666666666666,48.75,22.083333333333336,80,15C111.25,7.916666666666666,126.66666666666666,-27.541666666666668,160,-24C193.33333333333334,-20.458333333333332,206.66666666666666,32.208333333333336,240,32C273.3333333333333,31.791666666666668,286.6666666666667,-22.708333333333332,320,-25C353.3333333333333,-27.291666666666668,366.6666666666667,18.916666666666668,400,21C433.3333333333333,23.083333333333332,446.6666666666667,-16.875,480,-15C513.3333333333334,-13.125,526.6666666666666,28.75,560,30C593.3333333333334,31.25,606.6666666666666,-14.208333333333334,640,-9C673.3333333333334,-3.791666666666666,686.6666666666666,52.083333333333336,720,55C753.3333333333334,57.916666666666664,783.3333333333334,15.416666666666668,800,5" transform="matrix(1,0,0,1,0,700)"></path><path d="M10,10C24.583333333333332,11.041666666666666,48.75,22.083333333333336,80,15C111.25,7.916666666666666,126.66666666666666,-27.541666666666668,160,-24C193.33333333333334,-20.458333333333332,206.66666666666666,32.208333333333336,240,32C273.3333333333333,31.791666666666668,286.6666666666667,-22.708333333333332,320,-25C353.3333333333333,-27.291666666666668,366.6666666666667,18.916666666666668,400,21C433.3333333333333,23.083333333333332,446.6666666666667,-16.875,480,-15C513.3333333333334,-13.125,526.6666666666666,28.75,560,30C593.3333333333334,31.25,606.6666666666666,-14.208333333333334,640,-9C673.3333333333334,-3.791666666666666,686.6666666666666,52.083333333333336,720,55C753.3333333333334,57.916666666666664,783.3333333333334,15.416666666666668,800,5" transform="matrix(1,0,0,1,0,690)"></path><path d="M10,10C24.583333333333332,11.041666666666666,48.75,22.083333333333336,80,15C111.25,7.916666666666666,126.66666666666666,-27.541666666666668,160,-24C193.33333333333334,-20.458333333333332,206.66666666666666,32.208333333333336,240,32C273.3333333333333,31.791666666666668,286.6666666666667,-22.708333333333332,320,-25C353.3333333333333,-27.291666666666668,366.6666666666667,18.916666666666668,400,21C433.3333333333333,23.083333333333332,446.6666666666667,-16.875,480,-15C513.3333333333334,-13.125,526.6666666666666,28.75,560,30C593.3333333333334,31.25,606.6666666666666,-14.208333333333334,640,-9C673.3333333333334,-3.791666666666666,686.6666666666666,52.083333333333336,720,55C753.3333333333334,57.916666666666664,783.3333333333334,15.416666666666668,800,5" transform="matrix(1,0,0,1,0,680)"></path><path d="M10,10C24.583333333333332,11.041666666666666,48.75,22.083333333333336,80,15C111.25,7.916666666666666,126.66666666666666,-27.541666666666668,160,-24C193.33333333333334,-20.458333333333332,206.66666666666666,32.208333333333336,240,32C273.3333333333333,31.791666666666668,286.6666666666667,-22.708333333333332,320,-25C353.3333333333333,-27.291666666666668,366.6666666666667,18.916666666666668,400,21C433.3333333333333,23.083333333333332,446.6666666666667,-16.875,480,-15C513.3333333333334,-13.125,526.6666666666666,28.75,560,30C593.3333333333334,31.25,606.6666666666666,-14.208333333333334,640,-9C673.3333333333334,-3.791666666666666,686.6666666666666,52.083333333333336,720,55C753.3333333333334,57.916666666666664,783.3333333333334,15.416666666666668,800,5" transform="matrix(1,0,0,1,0,670)"></path><path d="M10,10C24.583333333333332,11.041666666666666,48.75,22.083333333333336,80,15C111.25,7.916666666666666,126.66666666666666,-27.541666666666668,160,-24C193.33333333333334,-20.458333333333332,206.66666666666666,32.208333333333336,240,32C273.3333333333333,31.791666666666668,286.6666666666667,-22.708333333333332,320,-25C353.3333333333333,-27.291666666666668,366.6666666666667,18.916666666666668,400,21C433.3333333333333,23.083333333333332,446.6666666666667,-16.875,480,-15C513.3333333333334,-13.125,526.6666666666666,28.75,560,30C593.3333333333334,31.25,606.6666666666666,-14.208333333333334,640,-9C673.3333333333334,-3.791666666666666,686.6666666666666,52.083333333333336,720,55C753.3333333333334,57.916666666666664,783.3333333333334,15.416666666666668,800,5" transform="matrix(1,0,0,1,0,660)"></path><path d="M10,10C24.583333333333332,11.041666666666666,48.75,22.083333333333336,80,15C111.25,7.916666666666666,126.66666666666666,-27.541666666666668,160,-24C193.33333333333334,-20.458333333333332,206.66666666666666,32.208333333333336,240,32C273.3333333333333,31.791666666666668,286.6666666666667,-22.708333333333332,320,-25C353.3333333333333,-27.291666666666668,366.6666666666667,18.916666666666668,400,21C433.3333333333333,23.083333333333332,446.6666666666667,-16.875,480,-15C513.3333333333334,-13.125,526.6666666666666,28.75,560,30C593.3333333333334,31.25,606.6666666666666,-14.208333333333334,640,-9C673.3333333333334,-3.791666666666666,686.6666666666666,52.083333333333336,720,55C753.3333333333334,57.916666666666664,783.3333333333334,15.416666666666668,800,5" transform="matrix(1,0,0,1,0,650)"></path><path d="M10,10C24.583333333333332,11.041666666666666,48.75,22.083333333333336,80,15C111.25,7.916666666666666,126.66666666666666,-27.541666666666668,160,-24C193.33333333333334,-20.458333333333332,206.66666666666666,32.208333333333336,240,32C273.3333333333333,31.791666666666668,286.6666666666667,-22.708333333333332,320,-25C353.3333333333333,-27.291666666666668,366.6666666666667,18.916666666666668,400,21C433.3333333333333,23.083333333333332,446.6666666666667,-16.875,480,-15C513.3333333333334,-13.125,526.6666666666666,28.75,560,30C593.3333333333334,31.25,606.6666666666666,-14.208333333333334,640,-9C673.3333333333334,-3.791666666666666,686.6666666666666,52.083333333333336,720,55C753.3333333333334,57.916666666666664,783.3333333333334,15.416666666666668,800,5" transform="matrix(1,0,0,1,0,640)"></path><path d="M10,10C24.583333333333332,11.041666666666666,48.75,22.083333333333336,80,15C111.25,7.916666666666666,126.66666666666666,-27.541666666666668,160,-24C193.33333333333334,-20.458333333333332,206.66666666666666,32.208333333333336,240,32C273.3333333333333,31.791666666666668,286.6666666666667,-22.708333333333332,320,-25C353.3333333333333,-27.291666666666668,366.6666666666667,18.916666666666668,400,21C433.3333333333333,23.083333333333332,446.6666666666667,-16.875,480,-15C513.3333333333334,-13.125,526.6666666666666,28.75,560,30C593.3333333333334,31.25,606.6666666666666,-14.208333333333334,640,-9C673.3333333333334,-3.791666666666666,686.6666666666666,52.083333333333336,720,55C753.3333333333334,57.916666666666664,783.3333333333334,15.416666666666668,800,5" transform="matrix(1,0,0,1,0,630)"></path><path d="M10,10C24.583333333333332,11.041666666666666,48.75,22.083333333333336,80,15C111.25,7.916666666666666,126.66666666666666,-27.541666666666668,160,-24C193.33333333333334,-20.458333333333332,206.66666666666666,32.208333333333336,240,32C273.3333333333333,31.791666666666668,286.6666666666667,-22.708333333333332,320,-25C353.3333333333333,-27.291666666666668,366.6666666666667,18.916666666666668,400,21C433.3333333333333,23.083333333333332,446.6666666666667,-16.875,480,-15C513.3333333333334,-13.125,526.6666666666666,28.75,560,30C593.3333333333334,31.25,606.6666666666666,-14.208333333333334,640,-9C673.3333333333334,-3.791666666666666,686.6666666666666,52.083333333333336,720,55C753.3333333333334,57.916666666666664,783.3333333333334,15.416666666666668,800,5" transform="matrix(1,0,0,1,0,620)"></path><path d="M10,10C24.583333333333332,11.041666666666666,48.75,22.083333333333336,80,15C111.25,7.916666666666666,126.66666666666666,-27.541666666666668,160,-24C193.33333333333334,-20.458333333333332,206.66666666666666,32.208333333333336,240,32C273.3333333333333,31.791666666666668,286.6666666666667,-22.708333333333332,320,-25C353.3333333333333,-27.291666666666668,366.6666666666667,18.916666666666668,400,21C433.3333333333333,23.083333333333332,446.6666666666667,-16.875,480,-15C513.3333333333334,-13.125,526.6666666666666,28.75,560,30C593.3333333333334,31.25,606.6666666666666,-14.208333333333334,640,-9C673.3333333333334,-3.791666666666666,686.6666666666666,52.083333333333336,720,55C753.3333333333334,57.916666666666664,783.3333333333334,15.416666666666668,800,5" transform="matrix(1,0,0,1,0,610)"></path><path d="M10,10C24.583333333333332,11.041666666666666,48.75,22.083333333333336,80,15C111.25,7.916666666666666,126.66666666666666,-27.541666666666668,160,-24C193.33333333333334,-20.458333333333332,206.66666666666666,32.208333333333336,240,32C273.3333333333333,31.791666666666668,286.6666666666667,-22.708333333333332,320,-25C353.3333333333333,-27.291666666666668,366.6666666666667,18.916666666666668,400,21C433.3333333333333,23.083333333333332,446.6666666666667,-16.875,480,-15C513.3333333333334,-13.125,526.6666666666666,28.75,560,30C593.3333333333334,31.25,606.6666666666666,-14.208333333333334,640,-9C673.3333333333334,-3.791666666666666,686.6666666666666,52.083333333333336,720,55C753.3333333333334,57.916666666666664,783.3333333333334,15.416666666666668,800,5" transform="matrix(1,0,0,1,0,600)"></path><path d="M10,10C24.583333333333332,11.041666666666666,48.75,22.083333333333336,80,15C111.25,7.916666666666666,126.66666666666666,-27.541666666666668,160,-24C193.33333333333334,-20.458333333333332,206.66666666666666,32.208333333333336,240,32C273.3333333333333,31.791666666666668,286.6666666666667,-22.708333333333332,320,-25C353.3333333333333,-27.291666666666668,366.6666666666667,18.916666666666668,400,21C433.3333333333333,23.083333333333332,446.6666666666667,-16.875,480,-15C513.3333333333334,-13.125,526.6666666666666,28.75,560,30C593.3333333333334,31.25,606.6666666666666,-14.208333333333334,640,-9C673.3333333333334,-3.791666666666666,686.6666666666666,52.083333333333336,720,55C753.3333333333334,57.916666666666664,783.3333333333334,15.416666666666668,800,5" transform="matrix(1,0,0,1,0,590)"></path><path d="M10,10C24.583333333333332,11.041666666666666,48.75,22.083333333333336,80,15C111.25,7.916666666666666,126.66666666666666,-27.541666666666668,160,-24C193.33333333333334,-20.458333333333332,206.66666666666666,32.208333333333336,240,32C273.3333333333333,31.791666666666668,286.6666666666667,-22.708333333333332,320,-25C353.3333333333333,-27.291666666666668,366.6666666666667,18.916666666666668,400,21C433.3333333333333,23.083333333333332,446.6666666666667,-16.875,480,-15C513.3333333333334,-13.125,526.6666666666666,28.75,560,30C593.3333333333334,31.25,606.6666666666666,-14.208333333333334,640,-9C673.3333333333334,-3.791666666666666,686.6666666666666,52.083333333333336,720,55C753.3333333333334,57.916666666666664,783.3333333333334,15.416666666666668,800,5" transform="matrix(1,0,0,1,0,580)"></path><path d="M10,10C24.583333333333332,11.041666666666666,48.75,22.083333333333336,80,15C111.25,7.916666666666666,126.66666666666666,-27.541666666666668,160,-24C193.33333333333334,-20.458333333333332,206.66666666666666,32.208333333333336,240,32C273.3333333333333,31.791666666666668,286.6666666666667,-22.708333333333332,320,-25C353.3333333333333,-27.291666666666668,366.6666666666667,18.916666666666668,400,21C433.3333333333333,23.083333333333332,446.6666666666667,-16.875,480,-15C513.3333333333334,-13.125,526.6666666666666,28.75,560,30C593.3333333333334,31.25,606.6666666666666,-14.208333333333334,640,-9C673.3333333333334,-3.791666666666666,686.6666666666666,52.083333333333336,720,55C753.3333333333334,57.916666666666664,783.3333333333334,15.416666666666668,800,5" transform="matrix(1,0,0,1,0,570)"></path><path d="M10,10C24.583333333333332,11.041666666666666,48.75,22.083333333333336,80,15C111.25,7.916666666666666,126.66666666666666,-27.541666666666668,160,-24C193.33333333333334,-20.458333333333332,206.66666666666666,32.208333333333336,240,32C273.3333333333333,31.791666666666668,286.6666666666667,-22.708333333333332,320,-25C353.3333333333333,-27.291666666666668,366.6666666666667,18.916666666666668,400,21C433.3333333333333,23.083333333333332,446.6666666666667,-16.875,480,-15C513.3333333333334,-13.125,526.6666666666666,28.75,560,30C593.3333333333334,31.25,606.6666666666666,-14.208333333333334,640,-9C673.3333333333334,-3.791666666666666,686.6666666666666,52.083333333333336,720,55C753.3333333333334,57.916666666666664,783.3333333333334,15.416666666666668,800,5" transform="matrix(1,0,0,1,0,560)"></path><path d="M10,10C24.583333333333332,11.041666666666666,48.75,22.083333333333336,80,15C111.25,7.916666666666666,126.66666666666666,-27.541666666666668,160,-24C193.33333333333334,-20.458333333333332,206.66666666666666,32.208333333333336,240,32C273.3333333333333,31.791666666666668,286.6666666666667,-22.708333333333332,320,-25C353.3333333333333,-27.291666666666668,366.6666666666667,18.916666666666668,400,21C433.3333333333333,23.083333333333332,446.6666666666667,-16.875,480,-15C513.3333333333334,-13.125,526.6666666666666,28.75,560,30C593.3333333333334,31.25,606.6666666666666,-14.208333333333334,640,-9C673.3333333333334,-3.791666666666666,686.6666666666666,52.083333333333336,720,55C753.3333333333334,57.916666666666664,783.3333333333334,15.416666666666668,800,5" transform="matrix(1,0,0,1,0,550)"></path><path d="M10,10C24.583333333333332,11.041666666666666,48.75,22.083333333333336,80,15C111.25,7.916666666666666,126.66666666666666,-27.541666666666668,160,-24C193.33333333333334,-20.458333333333332,206.66666666666666,32.208333333333336,240,32C273.3333333333333,31.791666666666668,286.6666666666667,-22.708333333333332,320,-25C353.3333333333333,-27.291666666666668,366.6666666666667,18.916666666666668,400,21C433.3333333333333,23.083333333333332,446.6666666666667,-16.875,480,-15C513.3333333333334,-13.125,526.6666666666666,28.75,560,30C593.3333333333334,31.25,606.6666666666666,-14.208333333333334,640,-9C673.3333333333334,-3.791666666666666,686.6666666666666,52.083333333333336,720,55C753.3333333333334,57.916666666666664,783.3333333333334,15.416666666666668,800,5" transform="matrix(1,0,0,1,0,540)"></path><path d="M10,10C24.583333333333332,11.041666666666666,48.75,22.083333333333336,80,15C111.25,7.916666666666666,126.66666666666666,-27.541666666666668,160,-24C193.33333333333334,-20.458333333333332,206.66666666666666,32.208333333333336,240,32C273.3333333333333,31.791666666666668,286.6666666666667,-22.708333333333332,320,-25C353.3333333333333,-27.291666666666668,366.6666666666667,18.916666666666668,400,21C433.3333333333333,23.083333333333332,446.6666666666667,-16.875,480,-15C513.3333333333334,-13.125,526.6666666666666,28.75,560,30C593.3333333333334,31.25,606.6666666666666,-14.208333333333334,640,-9C673.3333333333334,-3.791666666666666,686.6666666666666,52.083333333333336,720,55C753.3333333333334,57.916666666666664,783.3333333333334,15.416666666666668,800,5" transform="matrix(1,0,0,1,0,530)"></path><path d="M10,10C24.583333333333332,11.041666666666666,48.75,22.083333333333336,80,15C111.25,7.916666666666666,126.66666666666666,-27.541666666666668,160,-24C193.33333333333334,-20.458333333333332,206.66666666666666,32.208333333333336,240,32C273.3333333333333,31.791666666666668,286.6666666666667,-22.708333333333332,320,-25C353.3333333333333,-27.291666666666668,366.6666666666667,18.916666666666668,400,21C433.3333333333333,23.083333333333332,446.6666666666667,-16.875,480,-15C513.3333333333334,-13.125,526.6666666666666,28.75,560,30C593.3333333333334,31.25,606.6666666666666,-14.208333333333334,640,-9C673.3333333333334,-3.791666666666666,686.6666666666666,52.083333333333336,720,55C753.3333333333334,57.916666666666664,783.3333333333334,15.416666666666668,800,5" transform="matrix(1,0,0,1,0,520)"></path><path d="M10,10C24.583333333333332,11.041666666666666,48.75,22.083333333333336,80,15C111.25,7.916666666666666,126.66666666666666,-27.541666666666668,160,-24C193.33333333333334,-20.458333333333332,206.66666666666666,32.208333333333336,240,32C273.3333333333333,31.791666666666668,286.6666666666667,-22.708333333333332,320,-25C353.3333333333333,-27.291666666666668,366.6666666666667,18.916666666666668,400,21C433.3333333333333,23.083333333333332,446.6666666666667,-16.875,480,-15C513.3333333333334,-13.125,526.6666666666666,28.75,560,30C593.3333333333334,31.25,606.6666666666666,-14.208333333333334,640,-9C673.3333333333334,-3.791666666666666,686.6666666666666,52.083333333333336,720,55C753.3333333333334,57.916666666666664,783.3333333333334,15.416666666666668,800,5" transform="matrix(1,0,0,1,0,510)"></path><path d="M10,10C24.583333333333332,11.041666666666666,48.75,22.083333333333336,80,15C111.25,7.916666666666666,126.66666666666666,-27.541666666666668,160,-24C193.33333333333334,-20.458333333333332,206.66666666666666,32.208333333333336,240,32C273.3333333333333,31.791666666666668,286.6666666666667,-22.708333333333332,320,-25C353.3333333333333,-27.291666666666668,366.6666666666667,18.916666666666668,400,21C433.3333333333333,23.083333333333332,446.6666666666667,-16.875,480,-15C513.3333333333334,-13.125,526.6666666666666,28.75,560,30C593.3333333333334,31.25,606.6666666666666,-14.208333333333334,640,-9C673.3333333333334,-3.791666666666666,686.6666666666666,52.083333333333336,720,55C753.3333333333334,57.916666666666664,783.3333333333334,15.416666666666668,800,5" transform="matrix(1,0,0,1,0,500)"></path><path d="M10,10C24.583333333333332,11.041666666666666,48.75,22.083333333333336,80,15C111.25,7.916666666666666,126.66666666666666,-27.541666666666668,160,-24C193.33333333333334,-20.458333333333332,206.66666666666666,32.208333333333336,240,32C273.3333333333333,31.791666666666668,286.6666666666667,-22.708333333333332,320,-25C353.3333333333333,-27.291666666666668,366.6666666666667,18.916666666666668,400,21C433.3333333333333,23.083333333333332,446.6666666666667,-16.875,480,-15C513.3333333333334,-13.125,526.6666666666666,28.75,560,30C593.3333333333334,31.25,606.6666666666666,-14.208333333333334,640,-9C673.3333333333334,-3.791666666666666,686.6666666666666,52.083333333333336,720,55C753.3333333333334,57.916666666666664,783.3333333333334,15.416666666666668,800,5" transform="matrix(1,0,0,1,0,490)"></path><path d="M10,10C24.583333333333332,11.041666666666666,48.75,22.083333333333336,80,15C111.25,7.916666666666666,126.66666666666666,-27.541666666666668,160,-24C193.33333333333334,-20.458333333333332,206.66666666666666,32.208333333333336,240,32C273.3333333333333,31.791666666666668,286.6666666666667,-22.708333333333332,320,-25C353.3333333333333,-27.291666666666668,366.6666666666667,18.916666666666668,400,21C433.3333333333333,23.083333333333332,446.6666666666667,-16.875,480,-15C513.3333333333334,-13.125,526.6666666666666,28.75,560,30C593.3333333333334,31.25,606.6666666666666,-14.208333333333334,640,-9C673.3333333333334,-3.791666666666666,686.6666666666666,52.083333333333336,720,55C753.3333333333334,57.916666666666664,783.3333333333334,15.416666666666668,800,5" transform="matrix(1,0,0,1,0,480)"></path><path d="M10,10C24.583333333333332,11.041666666666666,48.75,22.083333333333336,80,15C111.25,7.916666666666666,126.66666666666666,-27.541666666666668,160,-24C193.33333333333334,-20.458333333333332,206.66666666666666,32.208333333333336,240,32C273.3333333333333,31.791666666666668,286.6666666666667,-22.708333333333332,320,-25C353.3333333333333,-27.291666666666668,366.6666666666667,18.916666666666668,400,21C433.3333333333333,23.083333333333332,446.6666666666667,-16.875,480,-15C513.3333333333334,-13.125,526.6666666666666,28.75,560,30C593.3333333333334,31.25,606.6666666666666,-14.208333333333334,640,-9C673.3333333333334,-3.791666666666666,686.6666666666666,52.083333333333336,720,55C753.3333333333334,57.916666666666664,783.3333333333334,15.416666666666668,800,5" transform="matrix(1,0,0,1,0,470)"></path><path d="M10,10C24.583333333333332,11.041666666666666,48.75,22.083333333333336,80,15C111.25,7.916666666666666,126.66666666666666,-27.541666666666668,160,-24C193.33333333333334,-20.458333333333332,206.66666666666666,32.208333333333336,240,32C273.3333333333333,31.791666666666668,286.6666666666667,-22.708333333333332,320,-25C353.3333333333333,-27.291666666666668,366.6666666666667,18.916666666666668,400,21C433.3333333333333,23.083333333333332,446.6666666666667,-16.875,480,-15C513.3333333333334,-13.125,526.6666666666666,28.75,560,30C593.3333333333334,31.25,606.6666666666666,-14.208333333333334,640,-9C673.3333333333334,-3.791666666666666,686.6666666666666,52.083333333333336,720,55C753.3333333333334,57.916666666666664,783.3333333333334,15.416666666666668,800,5" transform="matrix(1,0,0,1,0,460)"></path><path d="M10,10C24.583333333333332,11.041666666666666,48.75,22.083333333333336,80,15C111.25,7.916666666666666,126.66666666666666,-27.541666666666668,160,-24C193.33333333333334,-20.458333333333332,206.66666666666666,32.208333333333336,240,32C273.3333333333333,31.791666666666668,286.6666666666667,-22.708333333333332,320,-25C353.3333333333333,-27.291666666666668,366.6666666666667,18.916666666666668,400,21C433.3333333333333,23.083333333333332,446.6666666666667,-16.875,480,-15C513.3333333333334,-13.125,526.6666666666666,28.75,560,30C593.3333333333334,31.25,606.6666666666666,-14.208333333333334,640,-9C673.3333333333334,-3.791666666666666,686.6666666666666,52.083333333333336,720,55C753.3333333333334,57.916666666666664,783.3333333333334,15.416666666666668,800,5" transform="matrix(1,0,0,1,0,450)"></path><path d="M10,10C24.583333333333332,11.041666666666666,48.75,22.083333333333336,80,15C111.25,7.916666666666666,126.66666666666666,-27.541666666666668,160,-24C193.33333333333334,-20.458333333333332,206.66666666666666,32.208333333333336,240,32C273.3333333333333,31.791666666666668,286.6666666666667,-22.708333333333332,320,-25C353.3333333333333,-27.291666666666668,366.6666666666667,18.916666666666668,400,21C433.3333333333333,23.083333333333332,446.6666666666667,-16.875,480,-15C513.3333333333334,-13.125,526.6666666666666,28.75,560,30C593.3333333333334,31.25,606.6666666666666,-14.208333333333334,640,-9C673.3333333333334,-3.791666666666666,686.6666666666666,52.083333333333336,720,55C753.3333333333334,57.916666666666664,783.3333333333334,15.416666666666668,800,5" transform="matrix(1,0,0,1,0,440)"></path><path d="M10,10C24.583333333333332,11.041666666666666,48.75,22.083333333333336,80,15C111.25,7.916666666666666,126.66666666666666,-27.541666666666668,160,-24C193.33333333333334,-20.458333333333332,206.66666666666666,32.208333333333336,240,32C273.3333333333333,31.791666666666668,286.6666666666667,-22.708333333333332,320,-25C353.3333333333333,-27.291666666666668,366.6666666666667,18.916666666666668,400,21C433.3333333333333,23.083333333333332,446.6666666666667,-16.875,480,-15C513.3333333333334,-13.125,526.6666666666666,28.75,560,30C593.3333333333334,31.25,606.6666666666666,-14.208333333333334,640,-9C673.3333333333334,-3.791666666666666,686.6666666666666,52.083333333333336,720,55C753.3333333333334,57.916666666666664,783.3333333333334,15.416666666666668,800,5" transform="matrix(1,0,0,1,0,430)"></path><path d="M10,10C24.583333333333332,11.041666666666666,48.75,22.083333333333336,80,15C111.25,7.916666666666666,126.66666666666666,-27.541666666666668,160,-24C193.33333333333334,-20.458333333333332,206.66666666666666,32.208333333333336,240,32C273.3333333333333,31.791666666666668,286.6666666666667,-22.708333333333332,320,-25C353.3333333333333,-27.291666666666668,366.6666666666667,18.916666666666668,400,21C433.3333333333333,23.083333333333332,446.6666666666667,-16.875,480,-15C513.3333333333334,-13.125,526.6666666666666,28.75,560,30C593.3333333333334,31.25,606.6666666666666,-14.208333333333334,640,-9C673.3333333333334,-3.791666666666666,686.6666666666666,52.083333333333336,720,55C753.3333333333334,57.916666666666664,783.3333333333334,15.416666666666668,800,5" transform="matrix(1,0,0,1,0,420)"></path><path d="M10,10C24.583333333333332,11.041666666666666,48.75,22.083333333333336,80,15C111.25,7.916666666666666,126.66666666666666,-27.541666666666668,160,-24C193.33333333333334,-20.458333333333332,206.66666666666666,32.208333333333336,240,32C273.3333333333333,31.791666666666668,286.6666666666667,-22.708333333333332,320,-25C353.3333333333333,-27.291666666666668,366.6666666666667,18.916666666666668,400,21C433.3333333333333,23.083333333333332,446.6666666666667,-16.875,480,-15C513.3333333333334,-13.125,526.6666666666666,28.75,560,30C593.3333333333334,31.25,606.6666666666666,-14.208333333333334,640,-9C673.3333333333334,-3.791666666666666,686.6666666666666,52.083333333333336,720,55C753.3333333333334,57.916666666666664,783.3333333333334,15.416666666666668,800,5" transform="matrix(1,0,0,1,0,410)"></path><path d="M10,10C24.583333333333332,11.041666666666666,48.75,22.083333333333336,80,15C111.25,7.916666666666666,126.66666666666666,-27.541666666666668,160,-24C193.33333333333334,-20.458333333333332,206.66666666666666,32.208333333333336,240,32C273.3333333333333,31.791666666666668,286.6666666666667,-22.708333333333332,320,-25C353.3333333333333,-27.291666666666668,366.6666666666667,18.916666666666668,400,21C433.3333333333333,23.083333333333332,446.6666666666667,-16.875,480,-15C513.3333333333334,-13.125,526.6666666666666,28.75,560,30C593.3333333333334,31.25,606.6666666666666,-14.208333333333334,640,-9C673.3333333333334,-3.791666666666666,686.6666666666666,52.083333333333336,720,55C753.3333333333334,57.916666666666664,783.3333333333334,15.416666666666668,800,5" transform="matrix(1,0,0,1,0,400)"></path><path d="M10,10C24.583333333333332,11.041666666666666,48.75,22.083333333333336,80,15C111.25,7.916666666666666,126.66666666666666,-27.541666666666668,160,-24C193.33333333333334,-20.458333333333332,206.66666666666666,32.208333333333336,240,32C273.3333333333333,31.791666666666668,286.6666666666667,-22.708333333333332,320,-25C353.3333333333333,-27.291666666666668,366.6666666666667,18.916666666666668,400,21C433.3333333333333,23.083333333333332,446.6666666666667,-16.875,480,-15C513.3333333333334,-13.125,526.6666666666666,28.75,560,30C593.3333333333334,31.25,606.6666666666666,-14.208333333333334,640,-9C673.3333333333334,-3.791666666666666,686.6666666666666,52.083333333333336,720,55C753.3333333333334,57.916666666666664,783.3333333333334,15.416666666666668,800,5" transform="matrix(1,0,0,1,0,390)"></path><path d="M10,10C24.583333333333332,11.041666666666666,48.75,22.083333333333336,80,15C111.25,7.916666666666666,126.66666666666666,-27.541666666666668,160,-24C193.33333333333334,-20.458333333333332,206.66666666666666,32.208333333333336,240,32C273.3333333333333,31.791666666666668,286.6666666666667,-22.708333333333332,320,-25C353.3333333333333,-27.291666666666668,366.6666666666667,18.916666666666668,400,21C433.3333333333333,23.083333333333332,446.6666666666667,-16.875,480,-15C513.3333333333334,-13.125,526.6666666666666,28.75,560,30C593.3333333333334,31.25,606.6666666666666,-14.208333333333334,640,-9C673.3333333333334,-3.791666666666666,686.6666666666666,52.083333333333336,720,55C753.3333333333334,57.916666666666664,783.3333333333334,15.416666666666668,800,5" transform="matrix(1,0,0,1,0,380)"></path><path d="M10,10C24.583333333333332,11.041666666666666,48.75,22.083333333333336,80,15C111.25,7.916666666666666,126.66666666666666,-27.541666666666668,160,-24C193.33333333333334,-20.458333333333332,206.66666666666666,32.208333333333336,240,32C273.3333333333333,31.791666666666668,286.6666666666667,-22.708333333333332,320,-25C353.3333333333333,-27.291666666666668,366.6666666666667,18.916666666666668,400,21C433.3333333333333,23.083333333333332,446.6666666666667,-16.875,480,-15C513.3333333333334,-13.125,526.6666666666666,28.75,560,30C593.3333333333334,31.25,606.6666666666666,-14.208333333333334,640,-9C673.3333333333334,-3.791666666666666,686.6666666666666,52.083333333333336,720,55C753.3333333333334,57.916666666666664,783.3333333333334,15.416666666666668,800,5" transform="matrix(1,0,0,1,0,370)"></path><path d="M10,10C24.583333333333332,11.041666666666666,48.75,22.083333333333336,80,15C111.25,7.916666666666666,126.66666666666666,-27.541666666666668,160,-24C193.33333333333334,-20.458333333333332,206.66666666666666,32.208333333333336,240,32C273.3333333333333,31.791666666666668,286.6666666666667,-22.708333333333332,320,-25C353.3333333333333,-27.291666666666668,366.6666666666667,18.916666666666668,400,21C433.3333333333333,23.083333333333332,446.6666666666667,-16.875,480,-15C513.3333333333334,-13.125,526.6666666666666,28.75,560,30C593.3333333333334,31.25,606.6666666666666,-14.208333333333334,640,-9C673.3333333333334,-3.791666666666666,686.6666666666666,52.083333333333336,720,55C753.3333333333334,57.916666666666664,783.3333333333334,15.416666666666668,800,5" transform="matrix(1,0,0,1,0,360)"></path><path d="M10,10C24.583333333333332,11.041666666666666,48.75,22.083333333333336,80,15C111.25,7.916666666666666,126.66666666666666,-27.541666666666668,160,-24C193.33333333333334,-20.458333333333332,206.66666666666666,32.208333333333336,240,32C273.3333333333333,31.791666666666668,286.6666666666667,-22.708333333333332,320,-25C353.3333333333333,-27.291666666666668,366.6666666666667,18.916666666666668,400,21C433.3333333333333,23.083333333333332,446.6666666666667,-16.875,480,-15C513.3333333333334,-13.125,526.6666666666666,28.75,560,30C593.3333333333334,31.25,606.6666666666666,-14.208333333333334,640,-9C673.3333333333334,-3.791666666666666,686.6666666666666,52.083333333333336,720,55C753.3333333333334,57.916666666666664,783.3333333333334,15.416666666666668,800,5" transform="matrix(1,0,0,1,0,350)"></path><path d="M10,10C24.583333333333332,11.041666666666666,48.75,22.083333333333336,80,15C111.25,7.916666666666666,126.66666666666666,-27.541666666666668,160,-24C193.33333333333334,-20.458333333333332,206.66666666666666,32.208333333333336,240,32C273.3333333333333,31.791666666666668,286.6666666666667,-22.708333333333332,320,-25C353.3333333333333,-27.291666666666668,366.6666666666667,18.916666666666668,400,21C433.3333333333333,23.083333333333332,446.6666666666667,-16.875,480,-15C513.3333333333334,-13.125,526.6666666666666,28.75,560,30C593.3333333333334,31.25,606.6666666666666,-14.208333333333334,640,-9C673.3333333333334,-3.791666666666666,686.6666666666666,52.083333333333336,720,55C753.3333333333334,57.916666666666664,783.3333333333334,15.416666666666668,800,5" transform="matrix(1,0,0,1,0,340)"></path><path d="M10,10C24.583333333333332,11.041666666666666,48.75,22.083333333333336,80,15C111.25,7.916666666666666,126.66666666666666,-27.541666666666668,160,-24C193.33333333333334,-20.458333333333332,206.66666666666666,32.208333333333336,240,32C273.3333333333333,31.791666666666668,286.6666666666667,-22.708333333333332,320,-25C353.3333333333333,-27.291666666666668,366.6666666666667,18.916666666666668,400,21C433.3333333333333,23.083333333333332,446.6666666666667,-16.875,480,-15C513.3333333333334,-13.125,526.6666666666666,28.75,560,30C593.3333333333334,31.25,606.6666666666666,-14.208333333333334,640,-9C673.3333333333334,-3.791666666666666,686.6666666666666,52.083333333333336,720,55C753.3333333333334,57.916666666666664,783.3333333333334,15.416666666666668,800,5" transform="matrix(1,0,0,1,0,330)"></path><path d="M10,10C24.583333333333332,11.041666666666666,48.75,22.083333333333336,80,15C111.25,7.916666666666666,126.66666666666666,-27.541666666666668,160,-24C193.33333333333334,-20.458333333333332,206.66666666666666,32.208333333333336,240,32C273.3333333333333,31.791666666666668,286.6666666666667,-22.708333333333332,320,-25C353.3333333333333,-27.291666666666668,366.6666666666667,18.916666666666668,400,21C433.3333333333333,23.083333333333332,446.6666666666667,-16.875,480,-15C513.3333333333334,-13.125,526.6666666666666,28.75,560,30C593.3333333333334,31.25,606.6666666666666,-14.208333333333334,640,-9C673.3333333333334,-3.791666666666666,686.6666666666666,52.083333333333336,720,55C753.3333333333334,57.916666666666664,783.3333333333334,15.416666666666668,800,5" transform="matrix(1,0,0,1,0,320)"></path><path d="M10,10C24.583333333333332,11.041666666666666,48.75,22.083333333333336,80,15C111.25,7.916666666666666,126.66666666666666,-27.541666666666668,160,-24C193.33333333333334,-20.458333333333332,206.66666666666666,32.208333333333336,240,32C273.3333333333333,31.791666666666668,286.6666666666667,-22.708333333333332,320,-25C353.3333333333333,-27.291666666666668,366.6666666666667,18.916666666666668,400,21C433.3333333333333,23.083333333333332,446.6666666666667,-16.875,480,-15C513.3333333333334,-13.125,526.6666666666666,28.75,560,30C593.3333333333334,31.25,606.6666666666666,-14.208333333333334,640,-9C673.3333333333334,-3.791666666666666,686.6666666666666,52.083333333333336,720,55C753.3333333333334,57.916666666666664,783.3333333333334,15.416666666666668,800,5" transform="matrix(1,0,0,1,0,310)"></path><path d="M10,10C24.583333333333332,11.041666666666666,48.75,22.083333333333336,80,15C111.25,7.916666666666666,126.66666666666666,-27.541666666666668,160,-24C193.33333333333334,-20.458333333333332,206.66666666666666,32.208333333333336,240,32C273.3333333333333,31.791666666666668,286.6666666666667,-22.708333333333332,320,-25C353.3333333333333,-27.291666666666668,366.6666666666667,18.916666666666668,400,21C433.3333333333333,23.083333333333332,446.6666666666667,-16.875,480,-15C513.3333333333334,-13.125,526.6666666666666,28.75,560,30C593.3333333333334,31.25,606.6666666666666,-14.208333333333334,640,-9C673.3333333333334,-3.791666666666666,686.6666666666666,52.083333333333336,720,55C753.3333333333334,57.916666666666664,783.3333333333334,15.416666666666668,800,5" transform="matrix(1,0,0,1,0,300)"></path><path d="M10,10C24.583333333333332,11.041666666666666,48.75,22.083333333333336,80,15C111.25,7.916666666666666,126.66666666666666,-27.541666666666668,160,-24C193.33333333333334,-20.458333333333332,206.66666666666666,32.208333333333336,240,32C273.3333333333333,31.791666666666668,286.6666666666667,-22.708333333333332,320,-25C353.3333333333333,-27.291666666666668,366.6666666666667,18.916666666666668,400,21C433.3333333333333,23.083333333333332,446.6666666666667,-16.875,480,-15C513.3333333333334,-13.125,526.6666666666666,28.75,560,30C593.3333333333334,31.25,606.6666666666666,-14.208333333333334,640,-9C673.3333333333334,-3.791666666666666,686.6666666666666,52.083333333333336,720,55C753.3333333333334,57.916666666666664,783.3333333333334,15.416666666666668,800,5" transform="matrix(1,0,0,1,0,290)"></path><path d="M10,10C24.583333333333332,11.041666666666666,48.75,22.083333333333336,80,15C111.25,7.916666666666666,126.66666666666666,-27.541666666666668,160,-24C193.33333333333334,-20.458333333333332,206.66666666666666,32.208333333333336,240,32C273.3333333333333,31.791666666666668,286.6666666666667,-22.708333333333332,320,-25C353.3333333333333,-27.291666666666668,366.6666666666667,18.916666666666668,400,21C433.3333333333333,23.083333333333332,446.6666666666667,-16.875,480,-15C513.3333333333334,-13.125,526.6666666666666,28.75,560,30C593.3333333333334,31.25,606.6666666666666,-14.208333333333334,640,-9C673.3333333333334,-3.791666666666666,686.6666666666666,52.083333333333336,720,55C753.3333333333334,57.916666666666664,783.3333333333334,15.416666666666668,800,5" transform="matrix(1,0,0,1,0,280)"></path><path d="M10,10C24.583333333333332,11.041666666666666,48.75,22.083333333333336,80,15C111.25,7.916666666666666,126.66666666666666,-27.541666666666668,160,-24C193.33333333333334,-20.458333333333332,206.66666666666666,32.208333333333336,240,32C273.3333333333333,31.791666666666668,286.6666666666667,-22.708333333333332,320,-25C353.3333333333333,-27.291666666666668,366.6666666666667,18.916666666666668,400,21C433.3333333333333,23.083333333333332,446.6666666666667,-16.875,480,-15C513.3333333333334,-13.125,526.6666666666666,28.75,560,30C593.3333333333334,31.25,606.6666666666666,-14.208333333333334,640,-9C673.3333333333334,-3.791666666666666,686.6666666666666,52.083333333333336,720,55C753.3333333333334,57.916666666666664,783.3333333333334,15.416666666666668,800,5" transform="matrix(1,0,0,1,0,270)"></path><path d="M10,10C24.583333333333332,11.041666666666666,48.75,22.083333333333336,80,15C111.25,7.916666666666666,126.66666666666666,-27.541666666666668,160,-24C193.33333333333334,-20.458333333333332,206.66666666666666,32.208333333333336,240,32C273.3333333333333,31.791666666666668,286.6666666666667,-22.708333333333332,320,-25C353.3333333333333,-27.291666666666668,366.6666666666667,18.916666666666668,400,21C433.3333333333333,23.083333333333332,446.6666666666667,-16.875,480,-15C513.3333333333334,-13.125,526.6666666666666,28.75,560,30C593.3333333333334,31.25,606.6666666666666,-14.208333333333334,640,-9C673.3333333333334,-3.791666666666666,686.6666666666666,52.083333333333336,720,55C753.3333333333334,57.916666666666664,783.3333333333334,15.416666666666668,800,5" transform="matrix(1,0,0,1,0,260)"></path><path d="M10,10C24.583333333333332,11.041666666666666,48.75,22.083333333333336,80,15C111.25,7.916666666666666,126.66666666666666,-27.541666666666668,160,-24C193.33333333333334,-20.458333333333332,206.66666666666666,32.208333333333336,240,32C273.3333333333333,31.791666666666668,286.6666666666667,-22.708333333333332,320,-25C353.3333333333333,-27.291666666666668,366.6666666666667,18.916666666666668,400,21C433.3333333333333,23.083333333333332,446.6666666666667,-16.875,480,-15C513.3333333333334,-13.125,526.6666666666666,28.75,560,30C593.3333333333334,31.25,606.6666666666666,-14.208333333333334,640,-9C673.3333333333334,-3.791666666666666,686.6666666666666,52.083333333333336,720,55C753.3333333333334,57.916666666666664,783.3333333333334,15.416666666666668,800,5" transform="matrix(1,0,0,1,0,250)"></path><path d="M10,10C24.583333333333332,11.041666666666666,48.75,22.083333333333336,80,15C111.25,7.916666666666666,126.66666666666666,-27.541666666666668,160,-24C193.33333333333334,-20.458333333333332,206.66666666666666,32.208333333333336,240,32C273.3333333333333,31.791666666666668,286.6666666666667,-22.708333333333332,320,-25C353.3333333333333,-27.291666666666668,366.6666666666667,18.916666666666668,400,21C433.3333333333333,23.083333333333332,446.6666666666667,-16.875,480,-15C513.3333333333334,-13.125,526.6666666666666,28.75,560,30C593.3333333333334,31.25,606.6666666666666,-14.208333333333334,640,-9C673.3333333333334,-3.791666666666666,686.6666666666666,52.083333333333336,720,55C753.3333333333334,57.916666666666664,783.3333333333334,15.416666666666668,800,5" transform="matrix(1,0,0,1,0,240)"></path><path d="M10,10C24.583333333333332,11.041666666666666,48.75,22.083333333333336,80,15C111.25,7.916666666666666,126.66666666666666,-27.541666666666668,160,-24C193.33333333333334,-20.458333333333332,206.66666666666666,32.208333333333336,240,32C273.3333333333333,31.791666666666668,286.6666666666667,-22.708333333333332,320,-25C353.3333333333333,-27.291666666666668,366.6666666666667,18.916666666666668,400,21C433.3333333333333,23.083333333333332,446.6666666666667,-16.875,480,-15C513.3333333333334,-13.125,526.6666666666666,28.75,560,30C593.3333333333334,31.25,606.6666666666666,-14.208333333333334,640,-9C673.3333333333334,-3.791666666666666,686.6666666666666,52.083333333333336,720,55C753.3333333333334,57.916666666666664,783.3333333333334,15.416666666666668,800,5" transform="matrix(1,0,0,1,0,230)"></path><path d="M10,10C24.583333333333332,11.041666666666666,48.75,22.083333333333336,80,15C111.25,7.916666666666666,126.66666666666666,-27.541666666666668,160,-24C193.33333333333334,-20.458333333333332,206.66666666666666,32.208333333333336,240,32C273.3333333333333,31.791666666666668,286.6666666666667,-22.708333333333332,320,-25C353.3333333333333,-27.291666666666668,366.6666666666667,18.916666666666668,400,21C433.3333333333333,23.083333333333332,446.6666666666667,-16.875,480,-15C513.3333333333334,-13.125,526.6666666666666,28.75,560,30C593.3333333333334,31.25,606.6666666666666,-14.208333333333334,640,-9C673.3333333333334,-3.791666666666666,686.6666666666666,52.083333333333336,720,55C753.3333333333334,57.916666666666664,783.3333333333334,15.416666666666668,800,5" transform="matrix(1,0,0,1,0,220)"></path><path d="M10,10C24.583333333333332,11.041666666666666,48.75,22.083333333333336,80,15C111.25,7.916666666666666,126.66666666666666,-27.541666666666668,160,-24C193.33333333333334,-20.458333333333332,206.66666666666666,32.208333333333336,240,32C273.3333333333333,31.791666666666668,286.6666666666667,-22.708333333333332,320,-25C353.3333333333333,-27.291666666666668,366.6666666666667,18.916666666666668,400,21C433.3333333333333,23.083333333333332,446.6666666666667,-16.875,480,-15C513.3333333333334,-13.125,526.6666666666666,28.75,560,30C593.3333333333334,31.25,606.6666666666666,-14.208333333333334,640,-9C673.3333333333334,-3.791666666666666,686.6666666666666,52.083333333333336,720,55C753.3333333333334,57.916666666666664,783.3333333333334,15.416666666666668,800,5" transform="matrix(1,0,0,1,0,210)"></path><path d="M10,10C24.583333333333332,11.041666666666666,48.75,22.083333333333336,80,15C111.25,7.916666666666666,126.66666666666666,-27.541666666666668,160,-24C193.33333333333334,-20.458333333333332,206.66666666666666,32.208333333333336,240,32C273.3333333333333,31.791666666666668,286.6666666666667,-22.708333333333332,320,-25C353.3333333333333,-27.291666666666668,366.6666666666667,18.916666666666668,400,21C433.3333333333333,23.083333333333332,446.6666666666667,-16.875,480,-15C513.3333333333334,-13.125,526.6666666666666,28.75,560,30C593.3333333333334,31.25,606.6666666666666,-14.208333333333334,640,-9C673.3333333333334,-3.791666666666666,686.6666666666666,52.083333333333336,720,55C753.3333333333334,57.916666666666664,783.3333333333334,15.416666666666668,800,5" transform="matrix(1,0,0,1,0,200)"></path><path d="M10,10C24.583333333333332,11.041666666666666,48.75,22.083333333333336,80,15C111.25,7.916666666666666,126.66666666666666,-27.541666666666668,160,-24C193.33333333333334,-20.458333333333332,206.66666666666666,32.208333333333336,240,32C273.3333333333333,31.791666666666668,286.6666666666667,-22.708333333333332,320,-25C353.3333333333333,-27.291666666666668,366.6666666666667,18.916666666666668,400,21C433.3333333333333,23.083333333333332,446.6666666666667,-16.875,480,-15C513.3333333333334,-13.125,526.6666666666666,28.75,560,30C593.3333333333334,31.25,606.6666666666666,-14.208333333333334,640,-9C673.3333333333334,-3.791666666666666,686.6666666666666,52.083333333333336,720,55C753.3333333333334,57.916666666666664,783.3333333333334,15.416666666666668,800,5" transform="matrix(1,0,0,1,0,190)"></path><path d="M10,10C24.583333333333332,11.041666666666666,48.75,22.083333333333336,80,15C111.25,7.916666666666666,126.66666666666666,-27.541666666666668,160,-24C193.33333333333334,-20.458333333333332,206.66666666666666,32.208333333333336,240,32C273.3333333333333,31.791666666666668,286.6666666666667,-22.708333333333332,320,-25C353.3333333333333,-27.291666666666668,366.6666666666667,18.916666666666668,400,21C433.3333333333333,23.083333333333332,446.6666666666667,-16.875,480,-15C513.3333333333334,-13.125,526.6666666666666,28.75,560,30C593.3333333333334,31.25,606.6666666666666,-14.208333333333334,640,-9C673.3333333333334,-3.791666666666666,686.6666666666666,52.083333333333336,720,55C753.3333333333334,57.916666666666664,783.3333333333334,15.416666666666668,800,5" transform="matrix(1,0,0,1,0,180)"></path><path d="M10,10C24.583333333333332,11.041666666666666,48.75,22.083333333333336,80,15C111.25,7.916666666666666,126.66666666666666,-27.541666666666668,160,-24C193.33333333333334,-20.458333333333332,206.66666666666666,32.208333333333336,240,32C273.3333333333333,31.791666666666668,286.6666666666667,-22.708333333333332,320,-25C353.3333333333333,-27.291666666666668,366.6666666666667,18.916666666666668,400,21C433.3333333333333,23.083333333333332,446.6666666666667,-16.875,480,-15C513.3333333333334,-13.125,526.6666666666666,28.75,560,30C593.3333333333334,31.25,606.6666666666666,-14.208333333333334,640,-9C673.3333333333334,-3.791666666666666,686.6666666666666,52.083333333333336,720,55C753.3333333333334,57.916666666666664,783.3333333333334,15.416666666666668,800,5" transform="matrix(1,0,0,1,0,170)"></path><path d="M10,10C24.583333333333332,11.041666666666666,48.75,22.083333333333336,80,15C111.25,7.916666666666666,126.66666666666666,-27.541666666666668,160,-24C193.33333333333334,-20.458333333333332,206.66666666666666,32.208333333333336,240,32C273.3333333333333,31.791666666666668,286.6666666666667,-22.708333333333332,320,-25C353.3333333333333,-27.291666666666668,366.6666666666667,18.916666666666668,400,21C433.3333333333333,23.083333333333332,446.6666666666667,-16.875,480,-15C513.3333333333334,-13.125,526.6666666666666,28.75,560,30C593.3333333333334,31.25,606.6666666666666,-14.208333333333334,640,-9C673.3333333333334,-3.791666666666666,686.6666666666666,52.083333333333336,720,55C753.3333333333334,57.916666666666664,783.3333333333334,15.416666666666668,800,5" transform="matrix(1,0,0,1,0,160)"></path><path d="M10,10C24.583333333333332,11.041666666666666,48.75,22.083333333333336,80,15C111.25,7.916666666666666,126.66666666666666,-27.541666666666668,160,-24C193.33333333333334,-20.458333333333332,206.66666666666666,32.208333333333336,240,32C273.3333333333333,31.791666666666668,286.6666666666667,-22.708333333333332,320,-25C353.3333333333333,-27.291666666666668,366.6666666666667,18.916666666666668,400,21C433.3333333333333,23.083333333333332,446.6666666666667,-16.875,480,-15C513.3333333333334,-13.125,526.6666666666666,28.75,560,30C593.3333333333334,31.25,606.6666666666666,-14.208333333333334,640,-9C673.3333333333334,-3.791666666666666,686.6666666666666,52.083333333333336,720,55C753.3333333333334,57.916666666666664,783.3333333333334,15.416666666666668,800,5" transform="matrix(1,0,0,1,0,150)"></path><path d="M10,10C24.583333333333332,11.041666666666666,48.75,22.083333333333336,80,15C111.25,7.916666666666666,126.66666666666666,-27.541666666666668,160,-24C193.33333333333334,-20.458333333333332,206.66666666666666,32.208333333333336,240,32C273.3333333333333,31.791666666666668,286.6666666666667,-22.708333333333332,320,-25C353.3333333333333,-27.291666666666668,366.6666666666667,18.916666666666668,400,21C433.3333333333333,23.083333333333332,446.6666666666667,-16.875,480,-15C513.3333333333334,-13.125,526.6666666666666,28.75,560,30C593.3333333333334,31.25,606.6666666666666,-14.208333333333334,640,-9C673.3333333333334,-3.791666666666666,686.6666666666666,52.083333333333336,720,55C753.3333333333334,57.916666666666664,783.3333333333334,15.416666666666668,800,5" transform="matrix(1,0,0,1,0,140)"></path><path d="M10,10C24.583333333333332,11.041666666666666,48.75,22.083333333333336,80,15C111.25,7.916666666666666,126.66666666666666,-27.541666666666668,160,-24C193.33333333333334,-20.458333333333332,206.66666666666666,32.208333333333336,240,32C273.3333333333333,31.791666666666668,286.6666666666667,-22.708333333333332,320,-25C353.3333333333333,-27.291666666666668,366.6666666666667,18.916666666666668,400,21C433.3333333333333,23.083333333333332,446.6666666666667,-16.875,480,-15C513.3333333333334,-13.125,526.6666666666666,28.75,560,30C593.3333333333334,31.25,606.6666666666666,-14.208333333333334,640,-9C673.3333333333334,-3.791666666666666,686.6666666666666,52.083333333333336,720,55C753.3333333333334,57.916666666666664,783.3333333333334,15.416666666666668,800,5" transform="matrix(1,0,0,1,0,130)"></path><path d="M10,10C24.583333333333332,11.041666666666666,48.75,22.083333333333336,80,15C111.25,7.916666666666666,126.66666666666666,-27.541666666666668,160,-24C193.33333333333334,-20.458333333333332,206.66666666666666,32.208333333333336,240,32C273.3333333333333,31.791666666666668,286.6666666666667,-22.708333333333332,320,-25C353.3333333333333,-27.291666666666668,366.6666666666667,18.916666666666668,400,21C433.3333333333333,23.083333333333332,446.6666666666667,-16.875,480,-15C513.3333333333334,-13.125,526.6666666666666,28.75,560,30C593.3333333333334,31.25,606.6666666666666,-14.208333333333334,640,-9C673.3333333333334,-3.791666666666666,686.6666666666666,52.083333333333336,720,55C753.3333333333334,57.916666666666664,783.3333333333334,15.416666666666668,800,5" transform="matrix(1,0,0,1,0,120)"></path><path d="M10,10C24.583333333333332,11.041666666666666,48.75,22.083333333333336,80,15C111.25,7.916666666666666,126.66666666666666,-27.541666666666668,160,-24C193.33333333333334,-20.458333333333332,206.66666666666666,32.208333333333336,240,32C273.3333333333333,31.791666666666668,286.6666666666667,-22.708333333333332,320,-25C353.3333333333333,-27.291666666666668,366.6666666666667,18.916666666666668,400,21C433.3333333333333,23.083333333333332,446.6666666666667,-16.875,480,-15C513.3333333333334,-13.125,526.6666666666666,28.75,560,30C593.3333333333334,31.25,606.6666666666666,-14.208333333333334,640,-9C673.3333333333334,-3.791666666666666,686.6666666666666,52.083333333333336,720,55C753.3333333333334,57.916666666666664,783.3333333333334,15.416666666666668,800,5" transform="matrix(1,0,0,1,0,110)"></path><path d="M10,10C24.583333333333332,11.041666666666666,48.75,22.083333333333336,80,15C111.25,7.916666666666666,126.66666666666666,-27.541666666666668,160,-24C193.33333333333334,-20.458333333333332,206.66666666666666,32.208333333333336,240,32C273.3333333333333,31.791666666666668,286.6666666666667,-22.708333333333332,320,-25C353.3333333333333,-27.291666666666668,366.6666666666667,18.916666666666668,400,21C433.3333333333333,23.083333333333332,446.6666666666667,-16.875,480,-15C513.3333333333334,-13.125,526.6666666666666,28.75,560,30C593.3333333333334,31.25,606.6666666666666,-14.208333333333334,640,-9C673.3333333333334,-3.791666666666666,686.6666666666666,52.083333333333336,720,55C753.3333333333334,57.916666666666664,783.3333333333334,15.416666666666668,800,5" transform="matrix(1,0,0,1,0,100)"></path><path d="M10,10C24.583333333333332,11.041666666666666,48.75,22.083333333333336,80,15C111.25,7.916666666666666,126.66666666666666,-27.541666666666668,160,-24C193.33333333333334,-20.458333333333332,206.66666666666666,32.208333333333336,240,32C273.3333333333333,31.791666666666668,286.6666666666667,-22.708333333333332,320,-25C353.3333333333333,-27.291666666666668,366.6666666666667,18.916666666666668,400,21C433.3333333333333,23.083333333333332,446.6666666666667,-16.875,480,-15C513.3333333333334,-13.125,526.6666666666666,28.75,560,30C593.3333333333334,31.25,606.6666666666666,-14.208333333333334,640,-9C673.3333333333334,-3.791666666666666,686.6666666666666,52.083333333333336,720,55C753.3333333333334,57.916666666666664,783.3333333333334,15.416666666666668,800,5" transform="matrix(1,0,0,1,0,90)"></path><path d="M10,10C24.583333333333332,11.041666666666666,48.75,22.083333333333336,80,15C111.25,7.916666666666666,126.66666666666666,-27.541666666666668,160,-24C193.33333333333334,-20.458333333333332,206.66666666666666,32.208333333333336,240,32C273.3333333333333,31.791666666666668,286.6666666666667,-22.708333333333332,320,-25C353.3333333333333,-27.291666666666668,366.6666666666667,18.916666666666668,400,21C433.3333333333333,23.083333333333332,446.6666666666667,-16.875,480,-15C513.3333333333334,-13.125,526.6666666666666,28.75,560,30C593.3333333333334,31.25,606.6666666666666,-14.208333333333334,640,-9C673.3333333333334,-3.791666666666666,686.6666666666666,52.083333333333336,720,55C753.3333333333334,57.916666666666664,783.3333333333334,15.416666666666668,800,5" transform="matrix(1,0,0,1,0,80)"></path><path d="M10,10C24.583333333333332,11.041666666666666,48.75,22.083333333333336,80,15C111.25,7.916666666666666,126.66666666666666,-27.541666666666668,160,-24C193.33333333333334,-20.458333333333332,206.66666666666666,32.208333333333336,240,32C273.3333333333333,31.791666666666668,286.6666666666667,-22.708333333333332,320,-25C353.3333333333333,-27.291666666666668,366.6666666666667,18.916666666666668,400,21C433.3333333333333,23.083333333333332,446.6666666666667,-16.875,480,-15C513.3333333333334,-13.125,526.6666666666666,28.75,560,30C593.3333333333334,31.25,606.6666666666666,-14.208333333333334,640,-9C673.3333333333334,-3.791666666666666,686.6666666666666,52.083333333333336,720,55C753.3333333333334,57.916666666666664,783.3333333333334,15.416666666666668,800,5" transform="matrix(1,0,0,1,0,70)"></path><path d="M10,10C24.583333333333332,11.041666666666666,48.75,22.083333333333336,80,15C111.25,7.916666666666666,126.66666666666666,-27.541666666666668,160,-24C193.33333333333334,-20.458333333333332,206.66666666666666,32.208333333333336,240,32C273.3333333333333,31.791666666666668,286.6666666666667,-22.708333333333332,320,-25C353.3333333333333,-27.291666666666668,366.6666666666667,18.916666666666668,400,21C433.3333333333333,23.083333333333332,446.6666666666667,-16.875,480,-15C513.3333333333334,-13.125,526.6666666666666,28.75,560,30C593.3333333333334,31.25,606.6666666666666,-14.208333333333334,640,-9C673.3333333333334,-3.791666666666666,686.6666666666666,52.083333333333336,720,55C753.3333333333334,57.916666666666664,783.3333333333334,15.416666666666668,800,5" transform="matrix(1,0,0,1,0,60)"></path><path d="M10,10C24.583333333333332,11.041666666666666,48.75,22.083333333333336,80,15C111.25,7.916666666666666,126.66666666666666,-27.541666666666668,160,-24C193.33333333333334,-20.458333333333332,206.66666666666666,32.208333333333336,240,32C273.3333333333333,31.791666666666668,286.6666666666667,-22.708333333333332,320,-25C353.3333333333333,-27.291666666666668,366.6666666666667,18.916666666666668,400,21C433.3333333333333,23.083333333333332,446.6666666666667,-16.875,480,-15C513.3333333333334,-13.125,526.6666666666666,28.75,560,30C593.3333333333334,31.25,606.6666666666666,-14.208333333333334,640,-9C673.3333333333334,-3.791666666666666,686.6666666666666,52.083333333333336,720,55C753.3333333333334,57.916666666666664,783.3333333333334,15.416666666666668,800,5" transform="matrix(1,0,0,1,0,50)"></path><path d="M10,10C24.583333333333332,11.041666666666666,48.75,22.083333333333336,80,15C111.25,7.916666666666666,126.66666666666666,-27.541666666666668,160,-24C193.33333333333334,-20.458333333333332,206.66666666666666,32.208333333333336,240,32C273.3333333333333,31.791666666666668,286.6666666666667,-22.708333333333332,320,-25C353.3333333333333,-27.291666666666668,366.6666666666667,18.916666666666668,400,21C433.3333333333333,23.083333333333332,446.6666666666667,-16.875,480,-15C513.3333333333334,-13.125,526.6666666666666,28.75,560,30C593.3333333333334,31.25,606.6666666666666,-14.208333333333334,640,-9C673.3333333333334,-3.791666666666666,686.6666666666666,52.083333333333336,720,55C753.3333333333334,57.916666666666664,783.3333333333334,15.416666666666668,800,5" transform="matrix(1,0,0,1,0,40)"></path><path d="M10,10C24.583333333333332,11.041666666666666,48.75,22.083333333333336,80,15C111.25,7.916666666666666,126.66666666666666,-27.541666666666668,160,-24C193.33333333333334,-20.458333333333332,206.66666666666666,32.208333333333336,240,32C273.3333333333333,31.791666666666668,286.6666666666667,-22.708333333333332,320,-25C353.3333333333333,-27.291666666666668,366.6666666666667,18.916666666666668,400,21C433.3333333333333,23.083333333333332,446.6666666666667,-16.875,480,-15C513.3333333333334,-13.125,526.6666666666666,28.75,560,30C593.3333333333334,31.25,606.6666666666666,-14.208333333333334,640,-9C673.3333333333334,-3.791666666666666,686.6666666666666,52.083333333333336,720,55C753.3333333333334,57.916666666666664,783.3333333333334,15.416666666666668,800,5" transform="matrix(1,0,0,1,0,30)"></path><path d="M10,10C24.583333333333332,11.041666666666666,48.75,22.083333333333336,80,15C111.25,7.916666666666666,126.66666666666666,-27.541666666666668,160,-24C193.33333333333334,-20.458333333333332,206.66666666666666,32.208333333333336,240,32C273.3333333333333,31.791666666666668,286.6666666666667,-22.708333333333332,320,-25C353.3333333333333,-27.291666666666668,366.6666666666667,18.916666666666668,400,21C433.3333333333333,23.083333333333332,446.6666666666667,-16.875,480,-15C513.3333333333334,-13.125,526.6666666666666,28.75,560,30C593.3333333333334,31.25,606.6666666666666,-14.208333333333334,640,-9C673.3333333333334,-3.791666666666666,686.6666666666666,52.083333333333336,720,55C753.3333333333334,57.916666666666664,783.3333333333334,15.416666666666668,800,5" transform="matrix(1,0,0,1,0,20)"></path><path d="M10,10C24.583333333333332,11.041666666666666,48.75,22.083333333333336,80,15C111.25,7.916666666666666,126.66666666666666,-27.541666666666668,160,-24C193.33333333333334,-20.458333333333332,206.66666666666666,32.208333333333336,240,32C273.3333333333333,31.791666666666668,286.6666666666667,-22.708333333333332,320,-25C353.3333333333333,-27.291666666666668,366.6666666666667,18.916666666666668,400,21C433.3333333333333,23.083333333333332,446.6666666666667,-16.875,480,-15C513.3333333333334,-13.125,526.6666666666666,28.75,560,30C593.3333333333334,31.25,606.6666666666666,-14.208333333333334,640,-9C673.3333333333334,-3.791666666666666,686.6666666666666,52.083333333333336,720,55C753.3333333333334,57.916666666666664,783.3333333333334,15.416666666666668,800,5" transform="matrix(1,0,0,1,0,10)"></path></g></svg>