<svg xmlns="http://www.w3.org/2000/svg" enable-background="new 0 0 64 64" viewBox="0 0 64 64" id="WrenchGear"><path d="M31.992,16.286c-8.685,0-15.75,7.065-15.75,15.75c0,8.684,7.065,15.75,15.75,15.75c8.684,0,15.75-7.065,15.75-15.75
			C47.741,23.351,40.676,16.286,31.992,16.286z M39.929,43.243l-2.842-2.842c-1.119-1.131-2.731-1.674-4.327-1.446
			c-2.696,0.396-5.457-0.519-7.387-2.448c-1.748-1.748-2.65-4.15-2.537-6.569l4.553,4.553c0.21,0.21,0.501,0.319,0.799,0.289
			c1.812-0.167,3.331-0.674,4.514-1.508c0.094-0.066,0.175-0.147,0.241-0.241c0.834-1.183,1.342-2.702,1.508-4.514
			c0.027-0.296-0.079-0.589-0.289-0.799l-4.553-4.553c2.416-0.113,4.821,0.789,6.569,2.537c1.93,1.93,2.845,4.692,2.447,7.393
			c-0.225,1.587,0.316,3.203,1.443,4.317l2.887,2.887C42.102,41.428,41.084,42.423,39.929,43.243z M44.076,38.59l-2.597-2.597
			c-0.684-0.676-1.01-1.655-0.874-2.613c0.489-3.318-0.637-6.717-3.012-9.093c-2.695-2.696-6.656-3.755-10.336-2.769
			c-0.345,0.093-0.609,0.367-0.702,0.712c-0.092,0.345,0.012,0.718,0.264,0.971l5.589,5.59c-0.158,1.178-0.495,2.166-1.002,2.943
			c-0.777,0.508-1.765,0.844-2.943,1.002l-5.583-5.582c-0.25-0.263-0.622-0.369-0.971-0.28c-0.351,0.089-0.625,0.361-0.719,0.71
			c-0.988,3.68,0.073,7.641,2.769,10.336c2.375,2.375,5.777,3.503,9.088,3.013c0.962-0.137,1.942,0.189,2.622,0.877l2.494,2.494
			c-1.858,0.939-3.951,1.48-6.171,1.48c-7.582,0-13.75-6.168-13.75-13.75s6.168-13.75,13.75-13.75s13.75,6.168,13.75,13.75
			C45.741,34.407,45.137,36.641,44.076,38.59z" fill="#ffffff" class="color000000 svgShape"></path><path d="M58.837,28.444c-0.115-0.859-0.798-1.56-1.663-1.704l-3.786-0.639c-0.483-1.762-1.191-3.467-2.111-5.066l2.237-3.129
			c0.515-0.721,0.504-1.673-0.028-2.372c-0.721-0.945-1.51-1.848-2.345-2.682c-0.852-0.852-1.756-1.643-2.688-2.352
			c-0.687-0.522-1.661-0.534-2.37-0.026l-3.13,2.238l0-0.009c-1.596-0.909-3.302-1.614-5.078-2.092l-0.627-3.784
			c-0.143-0.864-0.843-1.548-1.704-1.665c-2.322-0.311-4.792-0.309-7.101,0c-0.859,0.115-1.56,0.798-1.704,1.663l-0.639,3.786
			c-1.762,0.483-3.467,1.191-5.066,2.111l-3.129-2.237c-0.72-0.515-1.673-0.504-2.372,0.028c-0.945,0.721-1.848,1.51-2.682,2.345
			c-0.834,0.834-1.624,1.736-2.346,2.683c-0.526,0.69-0.537,1.67-0.027,2.383l2.23,3.124c-0.913,1.601-1.621,3.306-2.098,5.077
			l-3.784,0.627c-0.864,0.143-1.548,0.843-1.665,1.704c-0.155,1.159-0.234,2.353-0.234,3.547c0,1.201,0.079,2.396,0.234,3.553
			c0.115,0.859,0.798,1.56,1.663,1.704l3.786,0.639c0.483,1.762,1.191,3.467,2.111,5.066l-2.237,3.129
			c-0.515,0.721-0.504,1.673,0.028,2.372c0.721,0.945,1.51,1.848,2.345,2.682c0.834,0.834,1.736,1.624,2.683,2.346
			c0.69,0.526,1.669,0.537,2.383,0.027l3.124-2.23c1.601,0.913,3.306,1.621,5.077,2.098l0.627,3.784
			c0.143,0.864,0.843,1.548,1.704,1.665c1.159,0.155,2.354,0.234,3.553,0.234c1.197,0,2.391-0.079,3.547-0.234
			c0.859-0.115,1.56-0.798,1.704-1.663l0.639-3.786c1.762-0.483,3.467-1.191,5.066-2.111l3.129,2.237
			c0.72,0.516,1.674,0.503,2.372-0.028c0.945-0.721,1.848-1.51,2.682-2.345c0.852-0.852,1.643-1.756,2.352-2.688
			c0.523-0.687,0.534-1.662,0.026-2.37l-2.229-3.13c0.909-1.596,1.614-3.302,2.092-5.078l3.784-0.627
			c0.864-0.143,1.548-0.843,1.665-1.704c0.155-1.159,0.234-2.354,0.234-3.553C59.071,30.794,58.992,29.601,58.837,28.444z
			 M56.846,35.275l-3.785,0.627c-0.763,0.127-1.389,0.697-1.596,1.453c-0.438,1.607-1.08,3.157-1.905,4.606
			c-0.388,0.68-0.348,1.526,0.102,2.155l2.247,3.125c-0.655,0.861-1.387,1.698-2.175,2.486c-0.771,0.772-1.605,1.501-2.476,2.16
			l-3.129-2.237c-0.629-0.45-1.476-0.49-2.155-0.103c-1.454,0.83-3.002,1.473-4.604,1.912c-0.754,0.207-1.323,0.833-1.45,1.594
			l-0.629,3.801c-2.142,0.289-4.433,0.297-6.566-0.009l-0.627-3.785c-0.127-0.763-0.697-1.389-1.452-1.595
			c-1.602-0.438-3.152-1.082-4.607-1.912c-0.311-0.178-0.657-0.266-1.001-0.266c-0.408,0-0.814,0.124-1.155,0.369l-3.128,2.246
			c-0.875-0.668-1.71-1.398-2.482-2.17c-0.772-0.771-1.501-1.605-2.16-2.476l2.237-3.129c0.45-0.629,0.49-1.476,0.103-2.155
			c-0.83-1.454-1.473-3.002-1.912-4.604c-0.207-0.754-0.833-1.323-1.594-1.45l-3.801-0.629c-0.144-1.07-0.217-2.176-0.217-3.288
			c0-1.106,0.073-2.211,0.226-3.278l3.785-0.627c0.763-0.127,1.389-0.697,1.595-1.452c0.438-1.602,1.082-3.152,1.912-4.607
			c0.389-0.681,0.348-1.528-0.104-2.156l-2.246-3.128c0.668-0.875,1.398-1.71,2.17-2.482c0.771-0.772,1.605-1.501,2.476-2.16
			l3.129,2.237c0.629,0.45,1.476,0.49,2.155,0.103c1.454-0.83,3.002-1.473,4.604-1.912c0.754-0.207,1.323-0.833,1.45-1.594
			l0.629-3.801c2.135-0.287,4.426-0.298,6.566,0.009l0.627,3.785c0.127,0.763,0.697,1.389,1.453,1.596
			c1.607,0.438,3.157,1.08,4.606,1.905c0.679,0.388,1.525,0.349,2.155-0.102l3.125-2.247c0.861,0.655,1.698,1.387,2.486,2.175
			c0.772,0.771,1.501,1.605,2.16,2.476l-2.237,3.129c-0.45,0.629-0.49,1.476-0.103,2.155c0.83,1.454,1.473,3.002,1.912,4.604
			c0.207,0.754,0.833,1.323,1.594,1.45l3.801,0.629c0.144,1.07,0.217,2.174,0.217,3.282C57.071,33.102,56.999,34.208,56.846,35.275z
			" fill="#ffffff" class="color000000 svgShape"></path></svg>