<svg xmlns="http://www.w3.org/2000/svg" viewBox="0 0 64 64" id="Communication"><path d="M3 62h14a1 1 0 0 0 1-1v-9c0-2.449-1.773-4.483-4.101-4.909A4.947 4.947 0 0 0 15 44c0-2.757-2.243-5-5-5s-5 2.243-5 5c0 1.172.422 2.237 1.101 3.091C3.773 47.517 2 49.551 2 52v9a1 1 0 0 0 1 1zm7-21c1.654 0 3 1.346 3 3s-1.346 3-3 3-3-1.346-3-3 1.346-3 3-3zM4 52c0-1.654 1.346-3 3-3h6c1.654 0 3 1.346 3 3v8H4v-8zm53.899-4.909A4.947 4.947 0 0 0 59 44c0-2.757-2.243-5-5-5s-5 2.243-5 5c0 1.172.422 2.237 1.101 3.091C47.773 47.517 46 49.551 46 52v9a1 1 0 0 0 1 1h14a1 1 0 0 0 1-1v-9c0-2.449-1.773-4.483-4.101-4.909zM54 41c1.654 0 3 1.346 3 3s-1.346 3-3 3-3-1.346-3-3 1.346-3 3-3zm6 19H48v-8c0-1.654 1.346-3 3-3h6c1.654 0 3 1.346 3 3v8zM35.151 17.304l-1.546-.236-.7-1.492a.999.999 0 0 0-1.81-.001l-.7 1.492-1.546.236a1 1 0 0 0-.565 1.687l1.147 1.176-.273 1.673a1.003 1.003 0 0 0 1.471 1.037L32 22.118l1.371.757a1 1 0 0 0 1.47-1.037l-.273-1.673 1.147-1.176a.997.997 0 0 0-.564-1.685zm-2.367 1.827a.999.999 0 0 0-.271.859l.023.138-.053-.028a.996.996 0 0 0-.966 0l-.053.028.023-.138a1.001 1.001 0 0 0-.271-.859l-.141-.145.149-.023c.329-.05.612-.262.754-.563l.022-.046.021.046a1 1 0 0 0 .754.563l.149.023-.14.145z" fill="#ffffff" class="color000000 svgShape"></path><path d="M32 11c-4.411 0-8 3.589-8 8s3.589 8 8 8 8-3.589 8-8-3.589-8-8-8zm0 14c-3.309 0-6-2.691-6-6s2.691-6 6-6 6 2.691 6 6-2.691 6-6 6z" fill="#ffffff" class="color000000 svgShape"></path><path d="M44 15.429h-1.305a11.162 11.162 0 0 0-.606-1.467l.922-.922a.999.999 0 0 0 0-1.414l-3.637-3.637a.999.999 0 0 0-1.414 0l-.922.922a11.336 11.336 0 0 0-1.467-.607V7a1 1 0 0 0-1-1h-5.143a1 1 0 0 0-1 1v1.304c-.505.168-.998.373-1.467.607l-.921-.922a.999.999 0 0 0-1.414 0l-3.637 3.637a.999.999 0 0 0 0 1.414l.922.922c-.237.475-.44.968-.606 1.467H20a1 1 0 0 0-1 1v5.143a1 1 0 0 0 1 1h1.305c.165.499.369.991.606 1.467l-.922.922a.999.999 0 0 0 0 1.414l3.637 3.637a.999.999 0 0 0 1.414 0l.922-.922c.469.234.961.438 1.467.607V31a1 1 0 0 0 1 1h5.143a1 1 0 0 0 1-1v-1.304c.505-.168.998-.373 1.467-.607l.922.922a.999.999 0 0 0 1.414 0l3.637-3.637a.999.999 0 0 0 0-1.414l-.922-.922c.237-.475.44-.968.606-1.467H44a1 1 0 0 0 1-1v-5.143a.999.999 0 0 0-1-.999zm-1 5.142h-.411c-.806 0-1.517.525-1.771 1.307a9.264 9.264 0 0 1-.547 1.323 1.868 1.868 0 0 0 .328 2.176l.29.29-2.223 2.223-.289-.29a1.868 1.868 0 0 0-2.177-.33 9.272 9.272 0 0 1-1.323.548 1.867 1.867 0 0 0-1.307 1.771V30h-3.143v-.411c0-.806-.525-1.517-1.306-1.77a9.297 9.297 0 0 1-1.325-.548 1.865 1.865 0 0 0-2.175.329l-.29.29-2.223-2.223.29-.29c.569-.57.701-1.444.329-2.174a9.34 9.34 0 0 1-.548-1.325 1.867 1.867 0 0 0-1.771-1.306H21v-3.143h.411c.806 0 1.517-.525 1.771-1.307.146-.451.331-.896.547-1.323a1.868 1.868 0 0 0-.328-2.176l-.29-.29 2.223-2.223.29.29a1.865 1.865 0 0 0 2.176.329 9.272 9.272 0 0 1 1.323-.548A1.867 1.867 0 0 0 30.43 8.41V8h3.143v.411c0 .806.525 1.517 1.306 1.77.458.149.903.334 1.325.548.732.374 1.607.24 2.175-.329l.29-.29 2.223 2.223-.29.29a1.867 1.867 0 0 0-.329 2.174c.217.428.401.874.548 1.325a1.867 1.867 0 0 0 1.771 1.306H43v3.143z" fill="#ffffff" class="color000000 svgShape"></path><path d="M57 33V5c0-1.654-1.346-3-3-3H10C8.346 2 7 3.346 7 5v28c0 1.654 1.346 3 3 3h5.78l-.761 3.804a1 1 0 0 0 1.562 1.01L23.32 36h17.36l6.739 4.814a.999.999 0 0 0 1.124.026 1 1 0 0 0 .438-1.036L48.22 36H54c1.654 0 3-1.346 3-3zm-10 1a.998.998 0 0 0-.98 1.196l.504 2.52-4.942-3.53A1.005 1.005 0 0 0 41 34H23a1 1 0 0 0-.581.186l-4.942 3.53.504-2.52A1.001 1.001 0 0 0 17 34h-7c-.552 0-1-.449-1-1V5c0-.551.448-1 1-1h44c.552 0 1 .449 1 1v28c0 .551-.448 1-1 1h-7z" fill="#ffffff" class="color000000 svgShape"></path></svg>