<svg xmlns="http://www.w3.org/2000/svg" data-name="Layer 1" viewBox="0 0 32 32" id="DesignTools"><path d="M13,24.8a1.086,1.086,0,0,0-.816-1.043,8.191,8.191,0,0,1-1.987-.82,1.082,1.082,0,0,0-1.314.17L7.555,24.425,5.816,22.66l1.32-1.3a1.083,1.083,0,0,0,.171-1.312,8.159,8.159,0,0,1-.821-1.99,1.088,1.088,0,0,0-1.043-.815l-1.886-.017.018-2.459H5.443a1.088,1.088,0,0,0,1.043-.816,8.182,8.182,0,0,1,.82-1.988,1.083,1.083,0,0,0-.17-1.313L5.815,9.316,7.58,7.576l1.3,1.32a1.08,1.08,0,0,0,1.313.17,8.184,8.184,0,0,1,1.988-.82A1.084,1.084,0,0,0,13,7.2l.018-1.886H15.46V4.239H13.019a1.1,1.1,0,0,0-1.1,1.095L11.912,7.2a9.135,9.135,0,0,0-2.26.936l-1.3-1.321a1.089,1.089,0,0,0-.775-.326h0a1.09,1.09,0,0,0-.775.321L5.052,8.554a1.095,1.095,0,0,0,.006,1.553l1.315,1.312a9.057,9.057,0,0,0-.93,2.265H3.575a1.1,1.1,0,0,0-1.1,1.1v2.442a1.1,1.1,0,0,0,1.1,1.095l1.868.012a9.177,9.177,0,0,0,.935,2.26l-1.32,1.3a1.094,1.094,0,0,0,0,1.553l1.74,1.742a1.1,1.1,0,0,0,.775.32h.005a1.089,1.089,0,0,0,.774-.326L9.66,23.868a9.132,9.132,0,0,0,2.263.929v1.868a1.1,1.1,0,0,0,1.1,1.1H18.6V26.683L13,26.665Z" fill="#ffffff" class="color000000 svgShape"></path><path d="M10.587 16a3.654 3.654 0 003.65 3.65h.539V12.342h-.539A3.659 3.659 0 0010.587 16zM17.116 4.239v7.543a5.552 5.552 0 003.509 5.154v8.132a2.693 2.693 0 105.385 0V16.936a5.552 5.552 0 003.511-5.154V4.239zm2.676 1.078V9.328H20.87V5.317h1.909V9.328h1.078V5.317h1.91V9.328h1.078V5.317h1.6v5.926H18.194V5.317zm5.14 12.011v7.74a1.614 1.614 0 11-3.228 0v-7.74h3.228zm-.957-1.078H22.662a4.459 4.459 0 01-4.414-3.929h10.14A4.458 4.458 0 0123.975 16.25z" fill="#ffffff" class="color000000 svgShape"></path><path d="M23.318,25.607a.9.9,0,1,0-.9-.9A.9.9,0,0,0,23.318,25.607Z" fill="#ffffff" class="color000000 svgShape"></path></svg>